<?xml version="1.0" encoding="iso-8859-1"?>
<!-- Generator: Adobe Illustrator 19.0.0, SVG Export Plug-In . SVG Version: 6.00 Build 0)  -->
<svg version="1.1" id="Layer_1" xmlns="http://www.w3.org/2000/svg" xmlns:xlink="http://www.w3.org/1999/xlink" x="0px" y="0px"
	 viewBox="0 0 512 512" style="enable-background:new 0 0 512 512;" xml:space="preserve">
<path style="fill:#ED732F;" d="M256,136.016c0,0-13.584-90.041,60.604-125.567c14.106,14.106,24.033,35.527,24.033,35.527
	S273.763,67.234,256,136.016z"/>
<path style="fill:#4BDD6B;" d="M333.845,113.9c-28.1,0-54.58,8-77.845,22.117C232.735,121.9,206.256,113.9,178.155,113.9
	c-92.622,0-167.706,86.779-167.706,193.825s75.084,193.825,167.706,193.825c28.1,0,54.58-8,77.845-22.117
	c23.265,14.118,49.744,22.117,77.845,22.117c92.622,0,167.706-86.779,167.706-193.825S426.467,113.9,333.845,113.9z"/>
<path style="fill:#00AF31;" d="M267.895,208.717c-15.734-36.663-11.137-76.702-11.137-76.702l0.01,0.026
	c0.27-0.007,62.929,2.885,97.186,43.115c34.259,40.252,27.185,102.62,27.162,102.89l0.006,0.014l-0.022-0.008v0.017l-0.008-0.014
	c-0.42-0.023-41.339-1.949-75.069-23.921c0,0-12.012-8.247-21.963-19.039C274.111,224.303,267.895,208.717,267.895,208.717z"/>
<path d="M460.333,163.832c-33.691-38.937-78.613-60.382-126.488-60.382c-19.978,0-39.86,3.89-58.629,11.361
	c8.117-15.647,19.942-29.302,35.374-40.764c17.399-12.922,33.079-18.073,33.212-18.115c2.859-0.909,5.19-3.004,6.399-5.749
	c1.208-2.746,1.178-5.88-0.084-8.602c-0.438-0.944-10.882-23.279-26.125-38.522c-3.135-3.134-7.904-3.949-11.902-2.035
	c-33.348,15.969-55.416,44.776-63.818,83.304c-2.787,12.777-3.626,24.59-3.693,33.834c-21.014-9.653-43.655-14.712-66.424-14.712
	c-47.875,0-92.797,21.444-126.488,60.383C18.349,202.34,0,253.442,0,307.725s18.349,105.385,51.667,143.892
	C85.358,490.555,130.28,512,178.155,512c26.955,0,53.739-7.065,77.845-20.481C280.106,504.935,306.89,512,333.845,512
	c47.875,0,92.797-21.444,126.488-60.383C493.651,413.111,512,362.009,512,307.725S493.651,202.34,460.333,163.832z M314.283,23.464
	c4.724,5.759,8.758,12.098,11.696,17.175c-13.861,6.387-37.553,19.951-56.383,44.271C276.536,57.164,291.543,36.539,314.283,23.464z
	 M333.845,491.102c-25.53,0-49.897-6.931-72.425-20.601c-1.666-1.01-3.543-1.516-5.421-1.516c-1.878,0-3.755,0.505-5.421,1.516
	c-22.526,13.67-46.893,20.601-72.423,20.601c-86.712,0-157.257-82.263-157.257-183.376s70.545-183.376,157.257-183.376
	c23.705,0,46.404,5.985,67.562,17.782c-0.34,15.273,0.962,43.645,12.575,70.707c2.276,5.303,8.421,7.758,13.723,5.482
	c5.303-2.276,7.757-8.42,5.482-13.723c-9.796-22.827-11.075-47.486-10.878-61.021c18.144,2.604,56.22,11.156,79.38,38.355
	c23.119,27.163,25.568,66.118,25.273,84.583c-13.599-1.958-38.214-7.24-59.542-21.134c-4.834-3.15-11.307-1.783-14.458,3.051
	c-3.15,4.836-1.784,11.309,3.052,14.458c33.958,22.122,73.695,25.225,79.809,25.578c0.32,0.03,0.641,0.045,0.964,0.045
	c0.635,0,1.277-0.059,1.915-0.178c2.219-0.411,4.296-1.537,5.871-3.286c1.553-1.723,2.453-3.871,2.646-6.091
	c0.794-7.65,5.866-68.886-29.618-110.575c-18.083-21.236-42.974-32.87-64.031-39.224c11.67-3.188,23.682-4.81,35.965-4.81
	c86.712,0,157.257,82.263,157.257,183.376S420.557,491.102,333.845,491.102z"/>
<path d="M145.274,160.05C86.194,177.18,44.931,237.906,44.931,307.725c0,5.771,4.679,10.449,10.449,10.449
	s10.449-4.678,10.449-10.449c0-60.575,35.063-113.048,85.267-127.604c5.542-1.607,8.732-7.403,7.125-12.945
	C156.613,161.634,150.825,158.444,145.274,160.05z"/>
<path d="M178.155,155.379h-0.129c-5.77,0-10.449,4.678-10.449,10.449s4.679,10.449,10.449,10.449h0.129
	c5.77,0,10.449-4.678,10.449-10.449S183.925,155.379,178.155,155.379z"/>
<path d="M277.243,227.059c-4.398,3.731-4.927,10.338-1.197,14.739c0.014,0.016,0.069,0.083,0.083,0.097
	c2.057,2.399,4.955,3.625,7.875,3.625c2.405,0,4.825-0.831,6.804-2.519c4.382-3.74,4.874-10.365,1.144-14.757
	C288.215,223.849,281.643,223.327,277.243,227.059z"/>
<g>
</g>
<g>
</g>
<g>
</g>
<g>
</g>
<g>
</g>
<g>
</g>
<g>
</g>
<g>
</g>
<g>
</g>
<g>
</g>
<g>
</g>
<g>
</g>
<g>
</g>
<g>
</g>
<g>
</g>
</svg>
