<?xml version="1.0" encoding="iso-8859-1"?>
<!-- Generator: Adobe Illustrator 19.0.0, SVG Export Plug-In . SVG Version: 6.00 Build 0)  -->
<svg version="1.1" id="Layer_1" xmlns="http://www.w3.org/2000/svg" xmlns:xlink="http://www.w3.org/1999/xlink" x="0px" y="0px"
	 viewBox="0 0 511.986 511.986" style="enable-background:new 0 0 511.986 511.986;" xml:space="preserve">
<polygon style="fill:#A0D468;" points="488.984,159.433 381.987,226.431 296.99,255.993 240.992,270.431 232.992,263.431 
	215.992,231.072 194.993,214.432 132.995,187.432 59.997,159.433 21.998,168.433 12.999,219.431 23.998,345.428 50.997,398.427 
	105.996,446.425 194.993,468.424 292.99,468.424 386.986,445.425 466.984,368.427 501.983,269.431 501.983,191.432 "/>
<path style="fill:#8CC153;" d="M440.485,71.936l-32.749,6.25l-42.748-4L304.99,42.437H201.243l-53.748,13.25l-73.248,62.498
	c0,0-10.5,38.498-9.5,38.748c1,0.25,22,9.25,22,9.25l55.498,18.499l82.498,57.249l13.062,25.718l18.187-4.719l84.247-24.999
	l51.248-23.249l71.248-45.499l3.25-23.999V86.436L440.485,71.936z"/>
<path d="M495.827,147.184c-1.281-0.453-2.719-0.672-4.312-0.672c-3.296,0-7.233,0.953-11.718,2.641
	c5.875-41.03,3.578-87.623-37.218-87.623c-0.141,0-0.266,0-0.391,0c-15.108,0.094-36.593,1.891-59.092,7.219
	c-26.843-20.343-69.998-39.592-137.73-40.873c0,0-7.477-0.062-7.609-0.062c-118.879,0.109-166.08,67.653-184.822,121.62
	c-0.445,0-0.891-0.016-1.328-0.016c-23.569,0-40.897,8.015-44.334,28.171c-46.6,273.054,142.3,306.583,237.922,306.583
	c3.226,0,6.335-0.031,9.335-0.094c0.758,0.062,1.523,0.094,2.297,0.094C549.873,484.173,523.889,157.199,495.827,147.184z
	 M442.345,82.858h0.234c7.358,0,10.093,2.391,11.952,4.969c3.469,4.827,5.672,13.671,6.203,24.921
	c0.531,11.124-0.5,24.515-3.047,39.812c-0.5,2.999-1.047,5.952-1.609,8.843c-24.421,14.75-55.811,37.874-87.653,57.029
	c9.375-12.108,17.108-23.999,23.14-34.249c15.641-26.53,23.438-47.42,23.766-48.295h-0.016c0.438-1.156,0.672-2.391,0.672-3.703
	c0-5.875-4.766-10.655-10.656-10.655c-4.594,0-8.5,2.905-10,6.968h-0.016c-0.281,0.766-28.576,75.998-84.325,117.777
	c-6.999,2.281-13.827,3.906-20.358,4.75c-18.797,2.438-36.616,5.625-52.694,9.016c-6.453-14.858-13.156-27.155-19.968-35.343
	c36.476-9.891,60.334-28.327,88.49-82.7c10.655-20.562,31.436-36.312,61.747-46.78C399.767,84.311,430.563,82.936,442.345,82.858z
	 M207.36,171.933c-0.484-14.438-10.625-23.749-19.578-31.983c-7.796-7.172-15.156-13.938-16.39-23.358
	c-0.07-0.531-0.109-1.031-0.148-1.562c9.273-1.906,25.679-4.938,43.499-6.469c33.452-2.906,57.591,0.625,67.998,9.906
	c2.359,2.109,5.219,5.468,5.875,11.687c-0.375,0.688-0.75,1.344-1.094,2.031c-28.39,54.795-49.264,67.404-87.974,75.092
	c-1.671-1.312-3.406-2.641-5.195-3.969C203.516,191.776,207.688,181.652,207.36,171.933z M356.691,76.686
	c-19.766,7.375-38.733,18.03-53.248,33.312c-2.031-3.031-4.312-5.5-6.5-7.469c-15.297-13.64-43.671-18.749-84.318-15.202
	c-12.672,1.109-24.507,2.891-33.89,4.547c7.164-9.922,18.281-18.281,28.483-24.531c14.546-8.905,29.694-15.077,37.929-18.124
	c28.842,0.562,54.905,4.625,77.543,12.141C335.066,65.468,346.441,70.593,356.691,76.686z M84.496,130.216
	c21.797-40.748,56.725-66.28,104.161-76.263c-35.381,24.233-40.6,48.686-38.42,65.389c2.234,17.124,13.812,27.765,23.108,36.311
	c7.781,7.156,12.523,11.875,12.695,17c0.109,3.375-1.602,9.219-9.5,18.78c-30.272-18.468-68.896-34.28-101.676-39.857
	C77.504,144.559,80.668,137.372,84.496,130.216z M63.95,395.005c-39.819-47.187-51.811-119.137-35.647-213.822
	c0.672-3.938,2.18-5.531,4.39-6.844c2.289-1.344,7.781-3.594,18.914-3.594c21.375,0,52.452,8.453,83.13,22.593
	c29.304,13.531,54.881,30.718,66.74,44.874c8.609,10.28,26.726,41.92,51.225,138.183c8.265,32.452,14.897,63.17,19.062,83.498
	c-60.263-21.812-109.676-63.311-146.956-123.465c-29.319-47.312-39.678-88.998-39.78-89.42H85.02
	c-1.133-4.671-5.336-8.155-10.359-8.155c-5.891,0-10.664,4.766-10.664,10.671c0,0.859,0.109,1.688,0.305,2.5h-0.008
	c0.438,1.812,11.062,44.889,41.991,95.013c18.194,29.483,39.686,55.295,63.873,76.685c17.054,15.078,35.468,27.984,55.077,38.608
	c-26.382-1.375-50.967-5.468-73.302-12.28C114.847,438.768,85.239,420.237,63.95,395.005z M490.375,233.431
	c-0.875,20.437-3.734,40.702-8.516,60.216c-5.469,22.375-13.328,43.125-23.359,61.686c-17.437,32.266-41.311,57.655-70.936,75.498
	c-26.545,15.969-57.982,26.016-93.824,30.03c-1.812-8.999-4.219-20.577-7.141-33.843c59.857-31.092,99.84-72.623,123.043-102.402
	c25.733-33.016,36.826-58.654,37.482-60.217c0.562-1.297,0.859-2.719,0.859-4.219c0-5.875-4.765-10.656-10.655-10.656
	c-4.438,0-8.233,2.703-9.843,6.562c-0.891,2.031-40.609,92.622-145.762,149.386c-9.141-39.405-21.632-87.247-35.741-125.293
	c14.633-3,30.632-5.812,47.382-7.999c8.312-1.062,16.827-3.156,25.483-6l0.359,0.5c0.562-0.391,1.125-0.797,1.688-1.203
	c36.265-12.484,74.685-38.39,109.434-61.795c14.843-10,28.858-19.453,40.499-26.249c6.391-3.719,10.984-6,14.203-7.406
	C488.109,180.777,491.718,202.354,490.375,233.431z"/>
<g>
</g>
<g>
</g>
<g>
</g>
<g>
</g>
<g>
</g>
<g>
</g>
<g>
</g>
<g>
</g>
<g>
</g>
<g>
</g>
<g>
</g>
<g>
</g>
<g>
</g>
<g>
</g>
<g>
</g>
</svg>
