<?xml version="1.0" encoding="iso-8859-1"?>
<!-- Generator: Adobe Illustrator 19.0.0, SVG Export Plug-In . SVG Version: 6.00 Build 0)  -->
<svg version="1.1" id="Layer_1" xmlns="http://www.w3.org/2000/svg" xmlns:xlink="http://www.w3.org/1999/xlink" x="0px" y="0px"
	 viewBox="0 0 511.982 511.982" style="enable-background:new 0 0 511.982 511.982;" xml:space="preserve">
<g>
	<polygon style="fill:#7EA343;" points="195.319,256.003 162.664,242.363 149.321,256.003 133.993,285.681 133.993,344.398 
		149.321,409.678 165.992,439.677 195.319,417.677 201.991,360.366 211.319,297.899 	"/>
	<polygon style="fill:#7EA343;" points="413.312,179.693 387.312,160.365 365.986,160.365 342.658,187.02 335.986,233.909 
		331.314,310.368 362.642,435.02 383.984,460.363 398.656,449.02 424.656,393.897 432.655,261.018 	"/>
</g>
<path d="M159.992,297.899c-5.891,0-10.671,4.781-10.671,10.656c0,5.906,4.78,10.688,10.671,10.688s10.656-4.781,10.656-10.688
	C170.648,302.68,165.883,297.899,159.992,297.899z"/>
<path d="M181.32,393.897c5.89,0,10.671-4.781,10.671-10.656c0-5.906-4.781-10.688-10.671-10.688
	c-5.891,0-10.672,4.781-10.672,10.688C170.648,389.116,175.429,393.897,181.32,393.897z"/>
<path d="M394.64,365.741c5.891,0,10.672-4.781,10.672-10.688c0-5.874-4.781-10.655-10.672-10.655s-10.656,4.781-10.656,10.655
	C383.984,360.96,388.75,365.741,394.64,365.741z"/>
<path d="M405.312,233.909c5.891,0,10.672-4.781,10.672-10.671s-4.781-10.671-10.672-10.671s-10.672,4.781-10.672,10.671
	S399.422,233.909,405.312,233.909z"/>
<path d="M362.642,255.237c-5.891,0-10.656,4.781-10.656,10.672c0,5.875,4.766,10.647,10.656,10.647s10.671-4.772,10.671-10.647
	C373.313,260.018,368.532,255.237,362.642,255.237z"/>
<path d="M509.074,152.053l0.016-0.016c-1.141-1.203-28.326-29.812-73.122-44.312c-26.468-8.578-53.607-10.437-80.622-5.531
	c-7.484,1.344-14.953,3.234-22.406,5.625c1.312-2.781,2.406-5.593,3.266-8.406c4.984-16.187,2.828-32.483-6.422-48.467
	c-16.905-29.218-51.154-40.749-79.669-26.812c-24.765,12.125-35.062,42.124-22.952,66.873c4.875,10,13.453,17.358,24.124,20.749
	c9.702,3.078,20.749,2.75,31.108-0.938c7.344-2.594,14.266-9.906,17.219-18.156c2.828-7.968,2.031-16.343-2.234-23.687
	c-0.016-0.062-0.047-0.094-0.078-0.156c-0.062-0.094-0.125-0.219-0.188-0.328l-0.016,0.016c-1.859-3.094-5.25-5.156-9.109-5.156
	c-5.891,0-10.672,4.781-10.672,10.656c0,2.031,0.578,3.906,1.547,5.515v0.016c1.172,1.938,1.391,3.719,0.719,5.75
	c-1,3.031-3.484,5.094-4.312,5.438c-10.062,3.562-23.405,2.25-28.952-9.078c-6.937-14.203-1.03-31.405,13.172-38.342
	c9.108-4.453,19.015-4.984,28.64-1.547c9.516,3.422,17.766,10.468,23.202,19.874c8.047,13.906,14.421,35.921-22.499,66.592
	c-10.797,6.531-21.484,14.171-32.046,22.89c-28.968,23.905-59.436,38.795-90.575,44.295c-24.796,4.359-50.217,2.812-75.513-4.594
	c-43.765-12.796-72.498-39.03-72.779-39.295l-0.016,0.016c-1.906-1.781-4.438-2.859-7.25-2.859C4.764,148.678,0,153.443,0,159.349
	c0,3.078,1.312,5.844,3.405,7.797v0.016c1.281,1.188,32.108,29.499,80.42,43.874c18.202,5.421,36.468,8.125,54.623,8.125
	c7.203,0,14.391-0.438,21.546-1.281v17.281c-18.546,4.438-30.093,20.656-36.171,42.303c-3.827,1.625-6.499,5.406-6.499,9.812
	c0,2.844,1.125,5.437,2.938,7.343c-3.078,21.469-2.078,45.999,1.891,69.029c-2.906,1.906-4.828,5.188-4.828,8.906
	c0,5.312,3.891,9.719,8.968,10.531c7.422,28.874,19.516,52.779,33.702,61.029v13.781l0,0c0,5.874,4.766,10.655,10.656,10.655
	s10.672-4.781,10.672-10.655l0,0v-13.781c20.827-12.094,37.123-57.936,40.779-103.716c0.609,0.094,1.234,0.156,1.891,0.156
	c5.891,0,10.656-4.78,10.656-10.655c0-5.906-4.766-10.656-10.656-10.656c-0.391,0-0.766,0-1.141,0.062
	c-0.422-40.749-12.233-77.146-41.529-84.146v-21.14c30.796-7.453,60.701-23.046,89.043-46.452
	c28.953-23.906,58.639-38.812,88.248-44.28c4.891-0.906,9.796-1.562,14.702-1.937v28.562c-11.593,2.75-21.03,10.031-28.562,20.687
	c-1.078-0.375-2.234-0.594-3.438-0.594c-5.891,0-10.672,4.781-10.672,10.672c0,3.421,1.625,6.468,4.141,8.421
	c-20.733,50.217-17.358,137.145-1.375,201.486c-1.719,1.906-2.766,4.406-2.766,7.156c0,4.78,3.188,8.843,7.547,10.187
	c9.234,30.218,21.453,53.248,35.124,61.311v13.812c0,5.906,4.781,10.688,10.671,10.688c5.891,0,10.656-4.781,10.656-10.688v-13.812
	c10.312-6.094,19.781-20.655,27.781-40.374c1.297,0.531,2.719,0.875,4.219,0.875c5.89,0,10.671-4.781,10.671-10.688
	c0-4.874-3.297-8.999-7.796-10.249c11.64-37.718,18.654-86.841,18.107-132.246c0,0,0.016,0,0.031,0
	c5.891,0,10.656-4.772,10.656-10.647c0-5.891-4.766-10.672-10.656-10.672c-0.297,0-0.594,0.016-0.891,0.047
	c-3.687-53.342-19.295-97.591-52.123-105.372v-28.687c11.391,0.797,22.734,2.968,33.938,6.531
	c39.826,12.656,64.716,38.64,64.95,38.874h0.016c1.938,2.078,4.703,3.375,7.766,3.375c5.89,0,10.671-4.781,10.671-10.656
	C511.98,156.521,510.871,153.959,509.074,152.053z M187.991,263.878c5.438,7,9.484,18.054,11.672,31.959
	c3.984,25.344,1.562,57.623-6.484,86.311c-3.734,13.312-8.406,24.718-13.53,33.029c-4.438,7.219-7.719,9.719-9,10.469
	c-1.266-0.75-4.547-3.25-8.984-10.469c-5.125-8.312-9.812-19.717-13.53-33.029c-8.047-28.688-10.484-60.967-6.484-86.311
	c2.188-13.905,6.234-24.959,11.672-31.959c4.64-5.969,9.983-8.625,17.327-8.625C178.008,255.253,183.351,257.909,187.991,263.878z
	 M406.031,183.224c7.359,10.578,13.062,27.062,16.484,47.686c3.375,20.265,4.531,44.523,3.344,70.146
	c-1.141,24.562-4.375,49.78-9.344,72.936c-4.906,22.781-11.25,42.467-18.344,56.936c-7,14.281-12.359,18.656-14.188,19.844
	c-1.843-1.188-7.187-5.562-14.187-19.844c-7.108-14.469-13.452-34.154-18.343-56.936c-4.984-23.155-8.219-48.373-9.344-72.936
	c-1.188-25.623-0.047-49.881,3.328-70.146c3.422-20.624,9.125-37.108,16.5-47.686c8.155-11.719,16.062-13.219,22.045-13.219
	C389.953,170.005,397.875,171.505,406.031,183.224z"/>
<g>
</g>
<g>
</g>
<g>
</g>
<g>
</g>
<g>
</g>
<g>
</g>
<g>
</g>
<g>
</g>
<g>
</g>
<g>
</g>
<g>
</g>
<g>
</g>
<g>
</g>
<g>
</g>
<g>
</g>
</svg>
