<?xml version="1.0" encoding="iso-8859-1"?>
<!-- Generator: Adobe Illustrator 19.0.0, SVG Export Plug-In . SVG Version: 6.00 Build 0)  -->
<svg version="1.1" id="Layer_1" xmlns="http://www.w3.org/2000/svg" xmlns:xlink="http://www.w3.org/1999/xlink" x="0px" y="0px"
	 viewBox="0 0 512 512" style="enable-background:new 0 0 512 512;" xml:space="preserve">
<path d="M180.111,90.398c0.382,0.135,5.434,1.867,12.385,1.867c4.8,0,10.505-0.831,16.202-3.579
	c11.394,12.199,27.119,25.162,45.355,29.721c0.638,0.159,1.291,0.239,1.944,0.239s1.306-0.08,1.944-0.239
	c18.237-4.559,33.961-17.522,45.355-29.721c5.697,2.749,11.402,3.579,16.202,3.579c6.949,0,12.003-1.732,12.385-1.867
	c4.175-1.473,6.365-6.053,4.891-10.227c-1.473-4.175-6.053-6.364-10.227-4.891c-0.075,0.027-5.817,1.907-12.27,0.378
	c5.106-6.701,8.093-11.614,8.451-12.21c2.278-3.797,1.046-8.721-2.749-10.999c-3.798-2.279-8.721-1.046-10.999,2.749
	c-0.06,0.1-6.122,10.136-16.161,21.179c-7.053,7.758-17.192,17.185-28.807,22.799V64.786c24.874-11.174,33.419-36.008,33.793-37.131
	c1.4-4.201-0.87-8.74-5.071-10.141c-4.199-1.399-8.74,0.87-10.141,5.071c-0.059,0.177-5.034,14.65-18.583,23.89V8.017
	c0-4.427-3.589-8.017-8.017-8.017c-4.427,0-8.017,3.589-8.017,8.017v38.429c-13.373-9.195-18.495-23.61-18.592-23.891
	c-1.411-4.183-5.942-6.44-10.131-5.042c-4.201,1.4-6.47,5.94-5.071,10.141c0.374,1.124,8.919,25.957,33.793,37.131v34.411
	c-25.658-12.338-44.757-43.647-44.967-43.997c-2.278-3.796-7.202-5.029-10.999-2.749c-3.797,2.278-5.028,7.202-2.749,10.999
	c0.358,0.596,3.342,5.505,8.444,12.201c-6.361,1.489-12.076-0.311-12.316-0.388c-4.16-1.433-8.707,0.754-10.175,4.91
	C173.746,84.346,175.936,88.926,180.111,90.398z"/>
<path d="M494.657,263.603c-1.073-4.296-5.429-6.909-9.722-5.833c-0.957,0.239-16.4,4.188-40.207,14.979
	c4.689-15.417,15.291-28.621,15.428-28.791c2.793-3.429,2.281-8.473-1.146-11.271c-3.43-2.8-8.481-2.291-11.28,1.139
	c-0.814,0.998-18.845,23.348-21.016,47.666c-7.566,3.913-15.654,8.399-24.151,13.536c-6.347,3.837-13.111,8.172-20.179,13.016
	c3.743-23.282,19.943-44.218,20.261-44.624c2.742-3.474,2.152-8.512-1.321-11.257c-3.474-2.745-8.515-2.156-11.261,1.318
	c-0.399,0.505-3.926,5.028-8.183,12.18c-2.713-2.371-5.824-5.568-8.345-9.463c-2.405-3.719-7.37-4.78-11.085-2.375
	c-3.718,2.405-4.78,7.369-2.375,11.085c4.441,6.864,10.071,12.03,14.26,15.304c-5.095,11.47-9.296,25.516-8.683,39.893
	c-14.913,11.284-30.748,24.743-46.729,40.681c-2.711-32.205,12.232-66.764,12.471-67.307c1.787-4.05-0.045-8.781-4.094-10.57
	c-4.049-1.788-8.783,0.044-10.573,4.093c-0.35,0.791-3.696,8.483-7.049,19.965c-3.33-2.892-7.498-7.128-10.712-12.43
	c-2.295-3.786-7.225-4.995-11.011-2.699c-3.786,2.295-4.995,7.225-2.699,11.011c6.848,11.296,16.61,18.668,20.257,21.176
	c-3.041,15.542-4.519,33.99-0.532,51.3c-13.897,15.118-27.724,32.159-40.966,51.328V252.364
	c20.587-10.662,38.686-22.981,54.37-35.656c8.048,2.416,16.475,3.374,24.712,3.374c8.255,0,16.302-0.942,23.561-2.267
	c5.467,9.852,12.508,16.117,12.865,16.429c1.52,1.33,3.401,1.982,5.275,1.982c2.232,0,4.453-0.927,6.037-2.74
	c2.915-3.333,2.576-8.397-0.757-11.312c-0.051-0.045-3.542-3.189-7.011-8.235c7.974-2.308,13.197-4.444,13.83-4.707
	c4.085-1.698,6.018-6.386,4.323-10.472c-1.695-4.086-6.384-6.026-10.473-4.334c-0.355,0.148-30.044,12.225-57.015,9.113
	c14.908-13.565,27.108-27.015,36.678-38.793c4.072,0.721,8.202,1.035,12.27,1.035c20.783,0,39.905-7.914,40.934-8.347
	c4.081-1.717,5.999-6.417,4.282-10.498c-1.717-4.081-6.415-6-10.498-4.282c-0.068,0.029-6.924,2.89-16.568,4.986
	c-5.273,1.147-11.999,2.179-18.875,2.103c17.952-24.649,26.31-42.745,26.704-43.61c1.839-4.024,0.067-8.775-3.956-10.617
	c-4.024-1.842-8.779-0.073-10.625,3.948c-0.09,0.198-8.016,17.279-24.764,40.386c-3.977-17.208-0.48-36.019-0.435-36.253
	c0.838-4.343-2-8.545-6.343-9.389c-4.342-0.841-8.553,1.995-9.398,6.341c-0.259,1.331-5.854,31.089,4.382,54.63
	c-9.745,11.945-22.332,25.687-37.838,39.427c-6.797-28.45,3.307-62.134,3.422-62.509c1.299-4.23-1.074-8.711-5.303-10.014
	c-4.232-1.304-8.718,1.069-10.021,5.301c-0.218,0.708-2.215,7.323-3.938,17.147c-3.005-2.136-6.561-5.118-9.549-8.92
	c-2.736-3.48-7.776-4.084-11.257-1.349c-3.481,2.736-4.085,7.775-1.349,11.257c7.037,8.953,16.08,14.427,19.981,16.523
	c-0.971,13.609-0.335,29.392,4.591,43.835c-12.502,9.935-26.574,19.596-42.245,28.287v-89.332c0-4.427-3.589-8.017-8.017-8.017
	c-4.427,0-8.017,3.589-8.017,8.017v89.332c-15.671-8.691-29.743-18.352-42.245-28.287c4.925-14.442,5.561-30.226,4.591-43.835
	c3.9-2.096,12.944-7.57,19.981-16.523c2.736-3.481,2.132-8.521-1.349-11.257c-3.48-2.736-8.521-2.134-11.257,1.349
	c-2.989,3.803-6.544,6.784-9.549,8.92c-1.723-9.824-3.72-16.439-3.938-17.146c-1.302-4.229-5.786-6.596-10.013-5.3
	c-4.23,1.299-6.607,5.783-5.311,10.013c0.115,0.376,10.22,34.06,3.422,62.509c-15.505-13.741-28.093-27.482-37.838-39.427
	c10.237-23.542,4.641-53.299,4.382-54.63c-0.844-4.346-5.052-7.186-9.398-6.341c-4.346,0.844-7.185,5.053-6.341,9.398
	c1.204,6.195,2.77,22.032-0.466,36.204c-16.729-23.087-24.645-40.15-24.736-40.348c-1.842-4.022-6.595-5.791-10.621-3.955
	c-4.028,1.84-5.801,6.595-3.961,10.623c0.394,0.866,8.756,18.972,26.719,43.63c-17.665,0.212-35.245-7.02-35.457-7.109
	c-4.082-1.717-8.781,0.201-10.498,4.282s0.201,8.781,4.282,10.498c1.029,0.433,20.15,8.347,40.934,8.347
	c4.067,0,8.198-0.313,12.27-1.036c9.57,11.778,21.77,25.228,36.677,38.793c-26.97,3.11-56.658-8.965-57.007-9.11
	c-4.09-1.698-8.78,0.235-10.481,4.323c-1.701,4.087,0.235,8.781,4.323,10.48c0.633,0.263,5.852,2.399,13.821,4.705
	c-3.447,5.02-6.916,8.16-7.02,8.253c-3.316,2.917-3.647,7.97-0.738,11.296c1.585,1.812,3.805,2.74,6.037,2.74
	c1.873,0,3.754-0.652,5.275-1.982c0.357-0.312,7.412-6.569,12.883-16.425c7.252,1.324,15.294,2.264,23.542,2.263
	c8.235,0,16.664-0.96,24.712-3.376c15.684,12.675,33.785,24.994,54.37,35.656v174.291c-13.243-19.171-27.069-36.21-40.966-51.328
	c3.987-17.311,2.509-35.758-0.532-51.3c3.647-2.508,13.407-9.88,20.257-21.176c2.296-3.786,1.087-8.716-2.699-11.011
	c-3.786-2.297-8.717-1.087-11.011,2.699c-3.219,5.31-7.383,9.542-10.712,12.433c-3.353-11.483-6.701-19.176-7.049-19.967
	c-1.789-4.048-6.518-5.879-10.566-4.093c-4.049,1.785-5.884,6.516-4.101,10.567c0.174,0.397,15.189,35.035,12.472,67.31
	c-15.981-15.939-31.816-29.397-46.729-40.681c0.614-14.378-3.587-28.423-8.683-39.893c4.189-3.273,9.818-8.44,14.26-15.304
	c2.405-3.718,1.343-8.68-2.375-11.085c-3.717-2.406-8.68-1.341-11.085,2.375c-2.52,3.895-5.631,7.091-8.346,9.463
	c-4.256-7.151-7.784-11.676-8.182-12.179c-2.746-3.474-7.787-4.063-11.261-1.318c-3.474,2.746-4.064,7.787-1.318,11.261
	c0.199,0.251,16.539,21.197,20.273,44.631c-7.073-4.847-13.842-9.186-20.194-13.026c-8.496-5.137-16.585-9.623-24.151-13.536
	c-2.171-24.318-20.2-46.667-21.016-47.666c-2.801-3.429-7.851-3.939-11.28-1.139c-3.429,2.8-3.94,7.851-1.139,11.28
	c3.624,4.437,11.509,16.127,15.38,28.763c-23.785-10.778-39.21-14.722-40.166-14.96c-4.291-1.074-8.639,1.535-9.716,5.827
	c-1.077,4.292,1.53,8.645,5.82,9.727c0.223,0.057,15.333,3.953,38.591,14.571c-14.478,7.968-32.161,9.774-32.375,9.794
	c-4.408,0.415-7.645,4.325-7.23,8.732c0.391,4.153,3.883,7.266,7.972,7.266c0.251,0,0.506-0.012,0.76-0.036
	c1.258-0.119,28.739-2.877,47.567-17.623c7.299,3.782,15.098,8.116,23.264,13.073c6.792,4.122,14.081,8.837,21.719,14.166
	c-22.639,11.802-52.354,11.645-52.696,11.636c-4.435-0.107-8.062,3.487-8.118,7.914c-0.057,4.427,3.487,8.062,7.914,8.118
	c0.088,0.001,0.268,0.002,0.538,0.002c1.359,0,4.958-0.046,9.991-0.44c-2.561,4.66-5.056,7.644-5.16,7.766
	c-2.884,3.347-2.517,8.397,0.823,11.292c1.517,1.314,3.385,1.958,5.246,1.958c2.245,0,4.477-0.937,6.062-2.766
	c0.343-0.395,7.494-8.75,11.672-20.803c12.089-2.389,26.009-6.685,37.85-14.381c14.83,11.282,30.603,24.81,46.497,40.897
	c-31.104,11.503-70.248,4.871-70.68,4.796c-4.361-0.769-8.519,2.14-9.289,6.5c-0.77,4.36,2.14,8.519,6.5,9.289
	c0.756,0.134,7.347,1.26,17.169,1.872c-3.523,7.774-8.119,13.051-8.221,13.168c-2.941,3.296-2.66,8.353,0.631,11.305
	c1.531,1.372,3.444,2.049,5.35,2.049c2.199,0,4.387-0.899,5.971-2.665c0.387-0.432,8.788-9.912,13.358-23.529
	c15.711-0.379,34.464-2.817,51.043-10.34c17.884,19.543,35.644,42.418,52.1,69.062v48.019c0,4.428,3.589,8.017,8.017,8.017
	c4.427,0,8.017-3.588,8.017-8.017v-48.017c16.456-26.644,34.215-49.52,52.1-69.062c16.58,7.525,35.331,9.962,51.043,10.34
	c4.57,13.617,12.971,23.097,13.358,23.528c1.581,1.763,3.764,2.659,5.957,2.659c1.899,0,3.806-0.672,5.337-2.036
	c3.298-2.939,3.587-8.003,0.658-11.31c-0.06-0.068-4.683-5.359-8.223-13.169c9.821-0.611,16.412-1.738,17.168-1.872
	c4.36-0.771,7.27-4.929,6.5-9.289c-0.771-4.36-4.927-7.265-9.289-6.5c-0.437,0.077-39.516,6.756-70.682-4.793
	c15.896-16.088,31.669-29.618,46.5-40.9c11.839,7.696,25.76,11.992,37.85,14.381c4.178,12.054,11.329,20.407,11.672,20.804
	c1.583,1.827,3.807,2.761,6.047,2.761c1.853,0,3.717-0.64,5.233-1.945c3.348-2.882,3.725-7.939,0.854-11.296
	c-0.043-0.049-2.569-3.05-5.163-7.77c5.033,0.395,8.632,0.44,9.991,0.44c0.268,0,0.45-0.001,0.538-0.002
	c4.424-0.057,7.962-3.687,7.91-8.111c-0.052-4.394-3.634-7.922-8.018-7.922c-0.03,0-0.06,0-0.089,0
	c-0.343-0.011-30.059,0.162-52.703-11.637c7.638-5.329,14.927-10.044,21.719-14.166c8.166-4.956,15.965-9.291,23.264-13.073
	c18.828,14.744,46.309,17.504,47.567,17.623c0.255,0.024,0.509,0.036,0.76,0.036c4.089,0,7.582-3.114,7.972-7.266
	c0.415-4.408-2.822-8.317-7.23-8.732c-5.877-0.554-20.411-3.29-32.334-9.812c23.091-10.538,38.139-14.447,38.544-14.551
	C493.12,272.25,495.731,267.898,494.657,263.603z"/>
<g>
</g>
<g>
</g>
<g>
</g>
<g>
</g>
<g>
</g>
<g>
</g>
<g>
</g>
<g>
</g>
<g>
</g>
<g>
</g>
<g>
</g>
<g>
</g>
<g>
</g>
<g>
</g>
<g>
</g>
</svg>
