<?xml version="1.0" encoding="iso-8859-1"?>
<!-- Generator: Adobe Illustrator 19.0.0, SVG Export Plug-In . SVG Version: 6.00 Build 0)  -->
<svg version="1.1" id="Layer_1" xmlns="http://www.w3.org/2000/svg" xmlns:xlink="http://www.w3.org/1999/xlink" x="0px" y="0px"
	 viewBox="0 0 512.322 512.322" style="enable-background:new 0 0 512.322 512.322;" xml:space="preserve">
<path style="fill:#4CDBC4;" d="M272.439,101.046c-70.4-62.933-153.6-83.2-201.6-88.533
	C102.839,91.446,192.439,130.913,272.439,101.046z"/>
<path style="fill:#3DC9AE;" d="M272.439,101.046h1.067c-30.933-81.067-121.6-121.6-203.733-90.667c0,1.067,1.067,1.067,1.067,2.133
	C118.839,17.846,202.039,38.113,272.439,101.046z"/>
<path style="fill:#40596B;" d="M264.973,158.646c-6.4-1.067-11.733-2.133-18.133-4.267c-3.2-30.933,6.4-62.933,26.667-89.6
	c4.267-5.333,10.667-8.533,18.133-8.533l0,0c14.933-1.067,18.133,10.667,8.533,21.333
	C278.839,102.113,267.106,130.913,264.973,158.646z"/>
<path style="fill:#FF7058;" d="M372.706,117.046c-40.533-10.667-81.067,0-116.267,25.6c-35.2-25.6-75.733-36.267-116.267-25.6
	C55.906,138.38,10.039,242.913,36.706,350.646c27.733,107.733,117.333,178.133,201.6,157.867l0,0c11.733-3.2,23.467-3.2,35.2,0l0,0
	c84.267,21.333,173.867-49.067,201.6-157.867C502.839,242.913,456.973,138.38,372.706,117.046z"/>
<g>
</g>
<g>
</g>
<g>
</g>
<g>
</g>
<g>
</g>
<g>
</g>
<g>
</g>
<g>
</g>
<g>
</g>
<g>
</g>
<g>
</g>
<g>
</g>
<g>
</g>
<g>
</g>
<g>
</g>
</svg>
