<?xml version="1.0" encoding="iso-8859-1"?>
<!-- Generator: Adobe Illustrator 18.0.0, SVG Export Plug-In . SVG Version: 6.00 Build 0)  -->
<!DOCTYPE svg PUBLIC "-//W3C//DTD SVG 1.1//EN" "http://www.w3.org/Graphics/SVG/1.1/DTD/svg11.dtd">
<svg version="1.1" id="Capa_1" xmlns="http://www.w3.org/2000/svg" xmlns:xlink="http://www.w3.org/1999/xlink" x="0px" y="0px"
	 viewBox="0 0 386.209 386.209" style="enable-background:new 0 0 386.209 386.209;" xml:space="preserve">
<g>
	<g>
		<path style="fill:#FDD44B;" d="M59.704,366.586c0.248,0.275,0.488,0.552,0.757,0.806C60.192,367.139,59.951,366.86,59.704,366.586
			z"/>
		<path style="fill:#FDD44B;" d="M207.652,218.141c0.368,1.321,0.707,2.661,0.98,4.037
			C208.358,220.802,208.022,219.462,207.652,218.141z"/>
		<path style="fill:#FDD44B;" d="M205.786,212.486c0.6,1.519,1.139,3.094,1.62,4.71
			C206.922,215.581,206.385,214.005,205.786,212.486z"/>
		<path style="fill:#FDD44B;" d="M56.631,360.86c-0.071-0.274-0.162-0.539-0.216-0.818C56.469,360.323,56.561,360.586,56.631,360.86
			z"/>
		<path style="fill:#FDD44B;" d="M65.548,370.413c-0.578-0.193-1.14-0.413-1.682-0.678
			C64.408,370.001,64.969,370.219,65.548,370.413z"/>
		<path style="fill:#FDD44B;" d="M62.384,368.93c-0.314-0.205-0.594-0.454-0.89-0.684C61.79,368.476,62.07,368.723,62.384,368.93z"
			/>
		<path style="fill:#FDD44B;" d="M209.299,230.413c-0.027-3.038-0.068-5.71-0.614-9.71H70.017c-2.236,9-3.861,12.928-3.922,19.732
			c0,0.12-0.104,1.141-0.104,1.26v125.798c0,1.119,0.245,2.465,0.499,3.506c1.056,0.262,2.235,0.704,3.371,0.704h126.057
			c7.557,0,13.073-6.676,13.073-14.233V231.624C208.992,231.521,209.299,230.515,209.299,230.413z M198.992,315.185
			c0,4.152-3.366,7.517-7.517,7.517H76.509c-4.152,0-7.517-3.366-7.517-7.517v-62.966c0-4.152,3.366-7.517,7.517-7.517h114.965
			c4.152,0,7.517,3.365,7.517,7.517V315.185z"/>
		<path style="fill:#FDD44B;" d="M57.537,363.356c-0.144-0.299-0.289-0.596-0.412-0.907
			C57.248,362.76,57.393,363.055,57.537,363.356z"/>
		<path style="fill:#FDD44B;" d="M58.829,365.527c-0.21-0.286-0.405-0.581-0.593-0.883C58.424,364.947,58.619,365.24,58.829,365.527
			z"/>
	</g>
	<g>
		<path style="fill:#EF8829;" d="M199.015,142.847c0.076,0.263,0.164,0.521,0.215,0.792
			C199.179,143.366,199.091,143.11,199.015,142.847z"/>
		<path style="fill:#EF8829;" d="M197.609,140.025c0.156,0.208,0.31,0.417,0.448,0.638
			C197.919,140.441,197.766,140.233,197.609,140.025z"/>
		<path style="fill:#EF8829;" d="M197.09,139.397c-0.169-0.185-0.343-0.36-0.527-0.529
			C196.747,139.037,196.922,139.213,197.09,139.397z"/>
		<path style="fill:#EF8829;" d="M198.434,141.356c0.121,0.241,0.246,0.479,0.345,0.731
			C198.68,141.834,198.556,141.597,198.434,141.356z"/>
		<path style="fill:#EF8829;" d="M192.366,136.721c0.182,0.035,0.352,0.099,0.529,0.146
			C192.718,136.821,192.549,136.757,192.366,136.721z"/>
		<path style="fill:#EF8829;" d="M199.238,143.702H86.047c-4.788,0-8.685,3.789-8.685,8.579c0,0.523,0.054,1.421,0.143,1.421
			h113.202c4.788,0,8.686-3.788,8.686-8.578C199.393,144.6,199.327,143.702,199.238,143.702z"/>
		<path style="fill:#EF8829;" d="M195.324,137.911c0.2,0.127,0.389,0.268,0.578,0.411
			C195.712,138.178,195.525,138.038,195.324,137.911z"/>
		<path style="fill:#EF8829;" d="M193.917,137.185c0.204,0.082,0.395,0.186,0.591,0.282
			C194.311,137.371,194.121,137.267,193.917,137.185z"/>
	</g>
	<g>
		<path style="fill:#FDD44B;" d="M74.667,29.809c0.05-0.154,0.098-0.308,0.153-0.461C74.765,29.501,74.717,29.655,74.667,29.809z"/>
		<path style="fill:#FDD44B;" d="M74.115,31.971c0.021-0.12,0.054-0.238,0.078-0.357C74.169,31.734,74.136,31.852,74.115,31.971z"/>
		<path style="fill:#FDD44B;" d="M73.876,34.084c-0.008,0.158-0.002,0.313-0.006,0.471C73.874,34.398,73.868,34.241,73.876,34.084z"
			/>
		<path style="fill:#FDD44B;" d="M74.398,39.105c-0.03-0.117-0.068-0.23-0.095-0.348C74.331,38.874,74.368,38.988,74.398,39.105z"/>
		<path style="fill:#FDD44B;" d="M92.38,15.031c0.282,0.006,0.448,0.02,0.474,0.021l-4.029,7.798
			c-3.185,0.908-7.347,3.122-10.634,8.451l-1.642,3.176c-0.974,1.887-1.545,3.873-1.758,5.866c0.586,1.711,1.413,3.34,2.525,4.793
			l15.543-30.084C92.833,15.051,92.665,15.036,92.38,15.031z"/>
		<path style="fill:#FDD44B;" d="M73.974,36.824c-0.024-0.208-0.039-0.417-0.056-0.626C73.935,36.407,73.95,36.616,73.974,36.824z"
			/>
	</g>
	<g>
		<path style="fill:#FDD44B;" d="M164.698,67.065c0.11-0.225,0.194-0.401,0.232-0.491C164.891,66.664,164.808,66.839,164.698,67.065
			z"/>
		<path style="fill:#FDD44B;" d="M325.5,153.715L163.269,69.888c0.026-0.051,0.05-0.098,0.076-0.149
			c-0.977,1.902-2.078,4.002-2.32,4.393l162.824,84.134c1.01,0.522,2.162,0.617,3.245,0.275c0.215-0.068,0.415-0.165,0.614-0.264
			C328.044,156.479,327.206,154.597,325.5,153.715z"/>
		<path style="fill:#FDD44B;" d="M164.28,67.904c0.112-0.223,0.202-0.404,0.291-0.583C164.482,67.5,164.392,67.682,164.28,67.904z"
			/>
		<path style="fill:#FDD44B;" d="M329.582,156.44c-0.193,0.374-0.448,0.699-0.734,0.992
			C329.132,157.137,329.389,156.814,329.582,156.44z"/>
		<path style="fill:#FDD44B;" d="M163.771,68.909c0.101-0.197,0.189-0.371,0.281-0.554C163.961,68.536,163.87,68.715,163.771,68.909
			z"/>
		<path style="fill:#FDD44B;" d="M327.711,158.276c0.377-0.189,0.716-0.433,1.018-0.721
			C328.425,157.84,328.087,158.087,327.711,158.276z"/>
	</g>
	<polygon style="fill:#FDD44B;" points="109.86,34.43 101.895,30.316 89.935,53.465 97.937,57.6 114.948,24.679 	"/>
	<polygon style="fill:#FDD44B;" points="131.218,45.467 123.255,41.352 111.294,64.502 119.296,68.636 136.306,35.716 	"/>
	<g>
		<path style="fill:#FDD44B;" d="M146.769,68.219c1.313-5.024,0.172-10.337-2.903-14.382L133.381,74.13
			c4.614,1.62,11.075-2.433,14.451-7.311C147.503,67.294,147.152,67.764,146.769,68.219z"/>
		<path style="fill:#FDD44B;" d="M148.891,65.087c-0.249,0.483-0.544,0.962-0.858,1.436
			C148.346,66.048,148.641,65.57,148.891,65.087z"/>
	</g>
	<rect x="91.992" y="267.702" style="fill:#EF8829;" width="91" height="45"/>
	<path style="fill:#84BD93;" d="M189.509,187.702H86.292c-1.994,3-4.904,5-7.896,10h119.009
		C194.413,192.702,191.504,190.702,189.509,187.702z"/>
	<rect x="91.992" y="167.702" style="fill:#EF8829;" width="91" height="7"/>
	<path style="fill:#3F2D20;" d="M75.098,323.158h115.584c4.151,0,7.517-3.365,7.517-7.517v-62.914c0-4.152-3.366-7.517-7.517-7.517
		H75.098c-4.152,0-7.517,3.365-7.517,7.517v62.914C67.581,319.792,70.946,323.158,75.098,323.158z M82.615,260.244h100.55v47.88
		H82.615V260.244z"/>
	<path style="fill:#3F2D20;" d="M224.643,230.762c-0.39-24.421-15.805-45.663-25.811-53.829v-9.406
		c9.089-3.325,15.594-12.06,15.594-22.286c0-13.08-10.641-23.721-23.72-23.721H75.073c-13.079,0-23.719,10.641-23.719,23.721
		c0,10.226,6.505,18.962,15.594,22.286v9.406c-9.998,8.161-25.401,29.379-25.808,53.78c-0.013,0.172-0.019,0.347-0.019,0.522
		v126.235c0,15.847,12.893,28.74,28.74,28.74h126.058c15.847,0,28.738-12.893,28.738-28.74V231.235
		C224.657,231.076,224.653,230.918,224.643,230.762z M183.798,173.69H81.982v-4.731h101.817V173.69z M189.509,188.724
		c1.995,1.663,4.904,4.672,7.897,8.727H68.374c2.992-4.055,5.902-7.064,7.896-8.727H189.509z M66.388,145.24
		c0-4.79,3.897-8.687,8.685-8.687h115.634c4.788,0,8.686,3.896,8.686,8.687c0,4.789-3.898,8.686-8.686,8.686H75.073
		C70.284,153.926,66.388,150.029,66.388,145.24z M209.623,357.469c0,7.557-6.147,13.706-13.704,13.706H69.861
		c-7.558,0-13.706-6.149-13.706-13.706V231.671c0.007-0.119,0.011-0.237,0.011-0.356c0.061-6.804,1.593-13.166,3.828-18.829h145.792
		c2.236,5.664,3.768,12.025,3.829,18.83c0,0.103,0.004,0.205,0.008,0.308V357.469z"/>
	<path style="fill:#3F2D20;" d="M334.657,137.352L167.24,50.844c-1.113-10.247-7.17-19.772-16.993-24.848L107.179,3.743
		c-0.004-0.002-0.008-0.004-0.011-0.006c-0.003-0.002-0.007-0.003-0.011-0.005l-0.352-0.182C102.31,1.227,97.273,0,92.239,0
		C80.295,0,69.472,6.587,63.992,17.193L62.35,20.37c-8.042,15.566-1.922,34.772,13.642,42.814l43.441,22.447
		c4.497,2.323,9.533,3.551,14.566,3.551c5.573,0,10.894-1.451,15.549-4.057l167.399,86.498c2.779,1.436,5.794,2.163,8.835,2.162
		c1.968,0,3.947-0.305,5.877-0.919c4.908-1.564,8.915-4.946,11.28-9.524C347.82,153.893,344.105,142.234,334.657,137.352z
		 M323.85,158.266L161.026,74.132c0.429-0.695,3.586-6.806,3.904-7.558l162.826,84.135c2.084,1.077,2.903,3.648,1.826,5.732
		c-0.521,1.009-1.404,1.755-2.487,2.1C326.012,158.883,324.86,158.787,323.85,158.266z M133.381,74.13l15.544-30.084
		c3.816,4.988,4.678,11.924,1.611,17.862l-1.645,3.179C146.003,70.675,138.533,75.939,133.381,74.13z M89.934,53.465l17.009-32.92
		l8.004,4.134L97.937,57.6L89.934,53.465z M75.707,27.27l1.642-3.176c6.128-9.936,15.305-9.049,15.511-9.042L77.316,45.136
		C73.499,40.148,72.637,33.21,75.707,27.27z M128.303,31.581l8.003,4.135l-17.009,32.921l-8.003-4.134L128.303,31.581z"/>
</g>
<g>
</g>
<g>
</g>
<g>
</g>
<g>
</g>
<g>
</g>
<g>
</g>
<g>
</g>
<g>
</g>
<g>
</g>
<g>
</g>
<g>
</g>
<g>
</g>
<g>
</g>
<g>
</g>
<g>
</g>
</svg>
