<?xml version="1.0" encoding="iso-8859-1"?>
<!-- Generator: Adobe Illustrator 19.0.0, SVG Export Plug-In . SVG Version: 6.00 Build 0)  -->
<svg version="1.1" id="Layer_1" xmlns="http://www.w3.org/2000/svg" xmlns:xlink="http://www.w3.org/1999/xlink" x="0px" y="0px"
	 viewBox="0 0 512 512" style="enable-background:new 0 0 512 512;" xml:space="preserve">
<path style="fill:#4CA1E0;" d="M368.314,176.463c0,74.27-80.458,134.473-179.694,134.473c-74.424,0-138.293-33.868-165.569-82.124
	c-9.104-16.089-14.126-33.773-14.126-52.349c0-55.789,45.4-103.64,110.054-124.001c21.409-6.747,44.947-10.472,69.64-10.472
	C287.856,41.99,368.314,102.194,368.314,176.463z"/>
<path style="fill:#368CC1;" d="M143.398,144.939L23.051,228.813c-9.104-16.089-14.126-33.773-14.126-52.349
	c0-55.789,45.4-103.64,110.054-124.001c0,0-9.604,44.567,49.053,44.567C226.7,97.029,143.398,144.939,143.398,144.939z"/>
<ellipse style="fill:#4CA1E0;" cx="188.619" cy="230.615" rx="179.694" ry="134.473"/>
<path style="fill:#368CC1;" d="M267.161,343.674c-99.242,0-179.694-60.206-179.694-134.473c0-46.849,32.02-88.094,80.57-112.17
	C78.489,104.675,8.925,161.564,8.925,230.621c0,74.267,80.452,134.473,179.694,134.473c36.64,0,70.71-8.214,99.125-22.304
	C280.988,343.367,274.123,343.674,267.161,343.674z"/>
<path style="fill:#4CA1E0;" d="M503.072,335.534c0,64.999-61.62,119.229-143.541,131.748c-11.674,1.785-23.765,2.725-36.153,2.725
	c-99.236,0-179.694-60.203-179.694-134.473H503.072z"/>
<path style="fill:#368CC1;" d="M359.531,467.282c-11.674,1.785-23.765,2.725-36.153,2.725c-99.236,0-179.694-60.204-179.694-134.473
	h109.447C228.152,456.774,356.33,467.044,359.531,467.282z"/>
<ellipse style="fill:#FFD41D;" cx="323.378" cy="335.54" rx="179.694" ry="72.224"/>
<path style="fill:#B25719;" d="M404.3,316.649c-19.624,16.113-48.589,26.323-80.922,26.323c-6.081,0-12.055-0.357-17.862-1.059
	c-25.038-2.999-47.125-12.186-63.06-25.264c19.635-16.113,48.589-26.323,80.922-26.323S384.677,300.536,404.3,316.649z"/>
<path style="fill:#994811;" d="M305.516,341.913c-25.038-2.999-47.125-12.186-63.06-25.264
	c19.635-16.113,48.589-26.323,80.922-26.323C323.378,290.325,287.654,311.603,305.516,341.913z"/>
<path d="M219.627,107.147c4.89,0.664,9.381-2.762,10.041-7.647s-2.762-9.381-7.647-10.041c-10.951-1.483-22.188-2.235-33.402-2.235
	c-40.123,0-78.417,9.414-110.742,27.224c-4.316,2.379-5.888,7.808-3.509,12.124c1.627,2.951,4.678,4.62,7.826,4.62
	c1.457,0,2.933-0.357,4.3-1.11c29.692-16.36,65.006-25.008,102.126-25.008C199.035,105.074,209.468,105.771,219.627,107.147z"/>
<path d="M465.519,281.362c-4.436-2.147-9.776-0.289-11.921,4.15c-2.147,4.438-0.288,9.775,4.15,11.921
	c23.475,11.35,36.402,24.882,36.402,38.105c0,15.179-17.144,30.774-47.035,42.789c-32.905,13.226-76.85,20.51-123.734,20.51
	s-90.828-7.284-123.734-20.51c-29.891-12.013-47.035-27.61-47.035-42.789c0-15.179,17.144-30.774,47.035-42.789
	c32.907-13.226,76.851-20.51,123.734-20.51c38.813,0,75.53,4.96,106.181,14.346c4.71,1.443,9.703-1.207,11.146-5.922
	c1.444-4.712-1.208-9.703-5.922-11.147c-18.494-5.663-39.025-9.79-60.8-12.292c2.146-8.726,3.252-17.633,3.252-26.602
	c0-9.193-1.132-18.261-3.345-27.118c2.211-8.849,3.345-17.931,3.345-27.04c0-38.801-19.963-75.109-56.211-102.234
	c-35.474-26.545-82.498-41.164-132.408-41.164S91.685,47.684,56.211,74.229C19.963,101.356,0,137.662,0,176.463
	c0,9.143,1.142,18.259,3.37,27.14C1.15,212.45,0,221.492,0,230.621c0,29.692,11.768,58.155,34.031,82.309
	c21.323,23.135,50.832,40.82,85.336,51.143c0.853,0.255,1.714,0.376,2.561,0.376c3.841,0,7.39-2.5,8.548-6.369
	c1.413-4.723-1.27-9.696-5.993-11.109c-31.435-9.404-58.173-25.358-77.327-46.139c-19.171-20.801-29.306-45.08-29.306-70.212
	c0-29.413,14.214-58.048,40.022-80.634c3.709-3.246,4.085-8.885,0.839-12.594c-3.246-3.709-8.885-4.085-12.594-0.839
	c-11.314,9.9-20.687,20.871-27.967,32.569C23.338,103.3,97.81,50.915,188.619,50.915c90.757,0,165.195,52.324,170.46,118.095
	c-4.754-7.598-10.413-14.909-16.953-21.857c-22.019-23.392-52.366-41.031-87.759-51.007c-4.739-1.336-9.674,1.424-11.011,6.169
	c-1.338,4.745,1.424,9.674,6.169,11.011c32.277,9.098,59.802,25.025,79.603,46.061c19.796,21.031,30.26,45.664,30.26,71.234
	c0,8.416-1.156,16.772-3.408,24.932c-10.663-0.765-21.551-1.166-32.6-1.166c-49.112,0-95.419,7.741-130.391,21.798
	c-37.549,15.092-58.228,36.171-58.228,59.351c0,38.801,19.962,75.107,56.209,102.233c35.474,26.546,82.496,41.165,132.411,41.165
	c49.912,0,96.937-14.62,132.411-41.165C492.038,410.645,512,374.338,512,335.537C512,321.075,503.936,299.938,465.519,281.362z
	 M323.381,461.085c-73.137,0-135.674-33.981-159.959-81.593c8.212,5.616,18.098,10.786,29.567,15.397
	c34.973,14.057,81.28,21.798,130.391,21.798s95.419-7.741,130.391-21.798c11.468-4.61,21.355-9.78,29.567-15.397
	C459.054,427.103,396.518,461.085,323.381,461.085z"/>
<path d="M290.811,330.213c-4.79-1.167-9.618,1.768-10.785,6.557c-1.167,4.789,1.767,9.618,6.557,10.785
	c11.827,2.883,24.208,4.345,36.798,4.345c33.079,0,64.638-10.335,86.585-28.355c2.065-1.695,3.262-4.226,3.262-6.897
	s-1.197-5.203-3.262-6.899c-21.946-18.019-53.506-28.354-86.585-28.354c-33.08,0-64.639,10.334-86.585,28.354
	c-2.065,1.695-3.262,4.226-3.262,6.897c0,2.672,1.196,5.203,3.262,6.897c5.919,4.86,12.61,9.223,19.883,12.964
	c4.383,2.256,9.764,0.531,12.019-3.853c2.256-4.384,0.53-9.765-3.853-12.019c-2.437-1.254-4.792-2.587-7.056-3.991
	c17.966-11.152,41.218-17.399,65.593-17.399c24.374,0,47.63,6.249,65.596,17.402c-17.966,11.153-41.221,17.402-65.596,17.402
	C312.212,334.05,301.254,332.759,290.811,330.213z"/>
<g>
</g>
<g>
</g>
<g>
</g>
<g>
</g>
<g>
</g>
<g>
</g>
<g>
</g>
<g>
</g>
<g>
</g>
<g>
</g>
<g>
</g>
<g>
</g>
<g>
</g>
<g>
</g>
<g>
</g>
</svg>
