<?xml version="1.0" encoding="UTF-8" standalone="no"?>
<!DOCTYPE svg PUBLIC "-//W3C//DTD SVG 1.1//EN"
 "http://www.w3.org/Graphics/SVG/1.1/DTD/svg11.dtd">
<!-- Generated by graphviz version 2.38.0 (20140413.2041)
 -->
<!-- Title: controllers_diagram Pages: 1 -->
<svg width="698pt" height="707pt"
 viewBox="0.00 0.00 698.00 707.00" xmlns="http://www.w3.org/2000/svg" xmlns:xlink="http://www.w3.org/1999/xlink">
<g id="graph0" class="graph" transform="scale(1 1) rotate(0) translate(244 415.5)">
<title>controllers_diagram</title>
<polygon fill="none" stroke="none" points="-244,291.5 -244,-415.5 454,-415.5 454,291.5 -244,291.5"/>
<!-- _diagram_info -->
<g id="node1" class="node"><title>_diagram_info</title>
<text text-anchor="start" x="-152" y="-223.6" font-family="Times,serif" font-size="13.00">Controllers diagram</text>
<text text-anchor="start" x="-152" y="-209.6" font-family="Times,serif" font-size="13.00">Date: May 29 2017 &#45; 20:28</text>
<text text-anchor="start" x="-152" y="-195.6" font-family="Times,serif" font-size="13.00">Migration version: 20170529135722</text>
<text text-anchor="start" x="-152" y="-181.6" font-family="Times,serif" font-size="13.00">Generated by RailRoady 1.5.2</text>
<text text-anchor="start" x="-152" y="-167.6" font-family="Times,serif" font-size="13.00">http://railroady.prestonlee.com</text>
</g>
<!-- ChatRoomsController -->
<g id="node2" class="node"><title>ChatRoomsController</title>
<path fill="none" stroke="black" d="M188.5,-176.5C188.5,-176.5 301.5,-176.5 301.5,-176.5 307.5,-176.5 313.5,-182.5 313.5,-188.5 313.5,-188.5 313.5,-317.5 313.5,-317.5 313.5,-323.5 307.5,-329.5 301.5,-329.5 301.5,-329.5 188.5,-329.5 188.5,-329.5 182.5,-329.5 176.5,-323.5 176.5,-317.5 176.5,-317.5 176.5,-188.5 176.5,-188.5 176.5,-182.5 182.5,-176.5 188.5,-176.5"/>
<text text-anchor="middle" x="245" y="-314.3" font-family="Times,serif" font-size="14.00">ChatRoomsController</text>
<polyline fill="none" stroke="black" points="176.5,-306.5 313.5,-306.5 "/>
<text text-anchor="start" x="184.5" y="-291.3" font-family="Times,serif" font-size="14.00">create</text>
<text text-anchor="start" x="184.5" y="-276.3" font-family="Times,serif" font-size="14.00">index</text>
<text text-anchor="start" x="184.5" y="-261.3" font-family="Times,serif" font-size="14.00">new</text>
<text text-anchor="start" x="184.5" y="-246.3" font-family="Times,serif" font-size="14.00">show</text>
<polyline fill="none" stroke="black" points="176.5,-238.5 313.5,-238.5 "/>
<polyline fill="none" stroke="black" points="176.5,-214.5 313.5,-214.5 "/>
<text text-anchor="start" x="184.5" y="-199.3" font-family="Times,serif" font-size="14.00">_layout</text>
<text text-anchor="start" x="184.5" y="-184.3" font-family="Times,serif" font-size="14.00">chat_room_params</text>
</g>
<!-- ApplicationController -->
<g id="node3" class="node"><title>ApplicationController</title>
<path fill="none" stroke="black" d="M-228,207C-228,207 -112,207 -112,207 -106,207 -100,201 -100,195 -100,195 -100,81 -100,81 -100,75 -106,69 -112,69 -112,69 -228,69 -228,69 -234,69 -240,75 -240,81 -240,81 -240,195 -240,195 -240,201 -234,207 -228,207"/>
<text text-anchor="middle" x="-170" y="84.2" font-family="Times,serif" font-size="14.00">ApplicationController</text>
<polyline fill="none" stroke="black" points="-240,92 -100,92 "/>
<text text-anchor="start" x="-232" y="107.2" font-family="Times,serif" font-size="14.00">after_sign_in_path_for</text>
<text text-anchor="start" x="-232" y="122.2" font-family="Times,serif" font-size="14.00">card_needed?</text>
<text text-anchor="start" x="-232" y="137.2" font-family="Times,serif" font-size="14.00">check_card</text>
<text text-anchor="start" x="-232" y="152.2" font-family="Times,serif" font-size="14.00">require_user</text>
<polyline fill="none" stroke="black" points="-240,160 -100,160 "/>
<polyline fill="none" stroke="black" points="-240,184 -100,184 "/>
<text text-anchor="start" x="-232" y="199.2" font-family="Times,serif" font-size="14.00">_layout</text>
</g>
<!-- VascularSurgeryController -->
<g id="node4" class="node"><title>VascularSurgeryController</title>
<path fill="none" stroke="black" d="M-179.5,-272.5C-179.5,-272.5 -40.5,-272.5 -40.5,-272.5 -34.5,-272.5 -28.5,-278.5 -28.5,-284.5 -28.5,-284.5 -28.5,-353.5 -28.5,-353.5 -28.5,-359.5 -34.5,-365.5 -40.5,-365.5 -40.5,-365.5 -179.5,-365.5 -179.5,-365.5 -185.5,-365.5 -191.5,-359.5 -191.5,-353.5 -191.5,-353.5 -191.5,-284.5 -191.5,-284.5 -191.5,-278.5 -185.5,-272.5 -179.5,-272.5"/>
<text text-anchor="middle" x="-110" y="-350.3" font-family="Times,serif" font-size="14.00">VascularSurgeryController</text>
<polyline fill="none" stroke="black" points="-191.5,-342.5 -28.5,-342.5 "/>
<text text-anchor="start" x="-183.5" y="-327.3" font-family="Times,serif" font-size="14.00">index</text>
<polyline fill="none" stroke="black" points="-191.5,-319.5 -28.5,-319.5 "/>
<polyline fill="none" stroke="black" points="-191.5,-295.5 -28.5,-295.5 "/>
<text text-anchor="start" x="-183.5" y="-280.3" font-family="Times,serif" font-size="14.00">_layout</text>
</g>
<!-- MessagesController -->
<g id="node5" class="node"><title>MessagesController</title>
<path fill="none" stroke="black" d="M299.5,287C299.5,287 400.5,287 400.5,287 406.5,287 412.5,281 412.5,275 412.5,275 412.5,205 412.5,205 412.5,199 406.5,193 400.5,193 400.5,193 299.5,193 299.5,193 293.5,193 287.5,199 287.5,205 287.5,205 287.5,275 287.5,275 287.5,281 293.5,287 299.5,287"/>
<text text-anchor="middle" x="350" y="208.2" font-family="Times,serif" font-size="14.00">MessagesController</text>
<polyline fill="none" stroke="black" points="287.5,216 412.5,216 "/>
<polyline fill="none" stroke="black" points="287.5,240 412.5,240 "/>
<polyline fill="none" stroke="black" points="287.5,264 412.5,264 "/>
<text text-anchor="start" x="295.5" y="279.2" font-family="Times,serif" font-size="14.00">_layout</text>
</g>
<!-- AllergyDepartmentController -->
<g id="node6" class="node"><title>AllergyDepartmentController</title>
<path fill="none" stroke="black" d="M92,223C92,223 246,223 246,223 252,223 258,217 258,211 258,211 258,127 258,127 258,121 252,115 246,115 246,115 92,115 92,115 86,115 80,121 80,127 80,127 80,211 80,211 80,217 86,223 92,223"/>
<text text-anchor="middle" x="169" y="130.2" font-family="Times,serif" font-size="14.00">AllergyDepartmentController</text>
<polyline fill="none" stroke="black" points="80,138 258,138 "/>
<text text-anchor="start" x="88" y="153.2" font-family="Times,serif" font-size="14.00">advice</text>
<text text-anchor="start" x="88" y="168.2" font-family="Times,serif" font-size="14.00">index</text>
<polyline fill="none" stroke="black" points="80,176 258,176 "/>
<polyline fill="none" stroke="black" points="80,200 258,200 "/>
<text text-anchor="start" x="88" y="215.2" font-family="Times,serif" font-size="14.00">_layout</text>
</g>
<!-- CardsController -->
<g id="node7" class="node"><title>CardsController</title>
<path fill="none" stroke="black" d="M-52,271.5C-52,271.5 28,271.5 28,271.5 34,271.5 40,265.5 40,259.5 40,259.5 40,160.5 40,160.5 40,154.5 34,148.5 28,148.5 28,148.5 -52,148.5 -52,148.5 -58,148.5 -64,154.5 -64,160.5 -64,160.5 -64,259.5 -64,259.5 -64,265.5 -58,271.5 -52,271.5"/>
<text text-anchor="middle" x="-12" y="163.7" font-family="Times,serif" font-size="14.00">CardsController</text>
<polyline fill="none" stroke="black" points="-64,171.5 40,171.5 "/>
<text text-anchor="start" x="-56" y="186.7" font-family="Times,serif" font-size="14.00">create</text>
<polyline fill="none" stroke="black" points="-64,194.5 40,194.5 "/>
<polyline fill="none" stroke="black" points="-64,218.5 40,218.5 "/>
<text text-anchor="start" x="-56" y="233.7" font-family="Times,serif" font-size="14.00">_layout</text>
<text text-anchor="start" x="-56" y="248.7" font-family="Times,serif" font-size="14.00">card_params</text>
<text text-anchor="start" x="-56" y="263.7" font-family="Times,serif" font-size="14.00">set_card</text>
</g>
<!-- RegistrationsController -->
<g id="node8" class="node"><title>RegistrationsController</title>
<path fill="none" stroke="black" d="M12.5,-273C12.5,-273 131.5,-273 131.5,-273 137.5,-273 143.5,-279 143.5,-285 143.5,-285 143.5,-399 143.5,-399 143.5,-405 137.5,-411 131.5,-411 131.5,-411 12.5,-411 12.5,-411 6.5,-411 0.5,-405 0.5,-399 0.5,-399 0.5,-285 0.5,-285 0.5,-279 6.5,-273 12.5,-273"/>
<text text-anchor="middle" x="72" y="-395.8" font-family="Times,serif" font-size="14.00">RegistrationsController</text>
<polyline fill="none" stroke="black" points="0.5,-388 143.5,-388 "/>
<text text-anchor="start" x="8.5" y="-372.8" font-family="Times,serif" font-size="14.00">create</text>
<text text-anchor="start" x="8.5" y="-357.8" font-family="Times,serif" font-size="14.00">new</text>
<text text-anchor="start" x="8.5" y="-342.8" font-family="Times,serif" font-size="14.00">update</text>
<polyline fill="none" stroke="black" points="0.5,-335 143.5,-335 "/>
<polyline fill="none" stroke="black" points="0.5,-311 143.5,-311 "/>
<text text-anchor="start" x="8.5" y="-295.8" font-family="Times,serif" font-size="14.00">_layout</text>
<text text-anchor="start" x="8.5" y="-280.8" font-family="Times,serif" font-size="14.00">user_params</text>
</g>
<!-- ArticlesController -->
<g id="node9" class="node"><title>ArticlesController</title>
<path fill="none" stroke="black" d="M-52.5,111C-52.5,111 38.5,111 38.5,111 44.5,111 50.5,105 50.5,99 50.5,99 50.5,-75 50.5,-75 50.5,-81 44.5,-87 38.5,-87 38.5,-87 -52.5,-87 -52.5,-87 -58.5,-87 -64.5,-81 -64.5,-75 -64.5,-75 -64.5,99 -64.5,99 -64.5,105 -58.5,111 -52.5,111"/>
<text text-anchor="middle" x="-7" y="-71.8" font-family="Times,serif" font-size="14.00">ArticlesController</text>
<polyline fill="none" stroke="black" points="-64.5,-64 50.5,-64 "/>
<text text-anchor="start" x="-56.5" y="-48.8" font-family="Times,serif" font-size="14.00">create</text>
<text text-anchor="start" x="-56.5" y="-33.8" font-family="Times,serif" font-size="14.00">destroy</text>
<text text-anchor="start" x="-56.5" y="-18.8" font-family="Times,serif" font-size="14.00">index</text>
<text text-anchor="start" x="-56.5" y="-3.8" font-family="Times,serif" font-size="14.00">new</text>
<text text-anchor="start" x="-56.5" y="11.2" font-family="Times,serif" font-size="14.00">show</text>
<text text-anchor="start" x="-56.5" y="26.2" font-family="Times,serif" font-size="14.00">update</text>
<polyline fill="none" stroke="black" points="-64.5,34 50.5,34 "/>
<polyline fill="none" stroke="black" points="-64.5,58 50.5,58 "/>
<text text-anchor="start" x="-56.5" y="73.2" font-family="Times,serif" font-size="14.00">_layout</text>
<text text-anchor="start" x="-56.5" y="88.2" font-family="Times,serif" font-size="14.00">article</text>
<text text-anchor="start" x="-56.5" y="103.2" font-family="Times,serif" font-size="14.00">article_params</text>
</g>
<!-- HemodialysisDepartmentController -->
<g id="node10" class="node"><title>HemodialysisDepartmentController</title>
<path fill="none" stroke="black" d="M92,-48.5C92,-48.5 280,-48.5 280,-48.5 286,-48.5 292,-54.5 292,-60.5 292,-60.5 292,-129.5 292,-129.5 292,-135.5 286,-141.5 280,-141.5 280,-141.5 92,-141.5 92,-141.5 86,-141.5 80,-135.5 80,-129.5 80,-129.5 80,-60.5 80,-60.5 80,-54.5 86,-48.5 92,-48.5"/>
<text text-anchor="middle" x="186" y="-126.3" font-family="Times,serif" font-size="14.00">HemodialysisDepartmentController</text>
<polyline fill="none" stroke="black" points="80,-118.5 292,-118.5 "/>
<text text-anchor="start" x="88" y="-103.3" font-family="Times,serif" font-size="14.00">index</text>
<polyline fill="none" stroke="black" points="80,-95.5 292,-95.5 "/>
<polyline fill="none" stroke="black" points="80,-71.5 292,-71.5 "/>
<text text-anchor="start" x="88" y="-56.3" font-family="Times,serif" font-size="14.00">_layout</text>
</g>
<!-- TraumatologicalDepartmentController -->
<g id="node11" class="node"><title>TraumatologicalDepartmentController</title>
<path fill="none" stroke="black" d="M92.5,79.5C92.5,79.5 295.5,79.5 295.5,79.5 301.5,79.5 307.5,73.5 307.5,67.5 307.5,67.5 307.5,-1.5 307.5,-1.5 307.5,-7.5 301.5,-13.5 295.5,-13.5 295.5,-13.5 92.5,-13.5 92.5,-13.5 86.5,-13.5 80.5,-7.5 80.5,-1.5 80.5,-1.5 80.5,67.5 80.5,67.5 80.5,73.5 86.5,79.5 92.5,79.5"/>
<text text-anchor="middle" x="194" y="1.7" font-family="Times,serif" font-size="14.00">TraumatologicalDepartmentController</text>
<polyline fill="none" stroke="black" points="80.5,9.5 307.5,9.5 "/>
<text text-anchor="start" x="88.5" y="24.7" font-family="Times,serif" font-size="14.00">index</text>
<polyline fill="none" stroke="black" points="80.5,32.5 307.5,32.5 "/>
<polyline fill="none" stroke="black" points="80.5,56.5 307.5,56.5 "/>
<text text-anchor="start" x="88.5" y="71.7" font-family="Times,serif" font-size="14.00">_layout</text>
</g>
<!-- WelcomeController -->
<g id="node12" class="node"><title>WelcomeController</title>
<path fill="none" stroke="black" d="M331.5,-48.5C331.5,-48.5 432.5,-48.5 432.5,-48.5 438.5,-48.5 444.5,-54.5 444.5,-60.5 444.5,-60.5 444.5,-129.5 444.5,-129.5 444.5,-135.5 438.5,-141.5 432.5,-141.5 432.5,-141.5 331.5,-141.5 331.5,-141.5 325.5,-141.5 319.5,-135.5 319.5,-129.5 319.5,-129.5 319.5,-60.5 319.5,-60.5 319.5,-54.5 325.5,-48.5 331.5,-48.5"/>
<text text-anchor="middle" x="382" y="-126.3" font-family="Times,serif" font-size="14.00">WelcomeController</text>
<polyline fill="none" stroke="black" points="319.5,-118.5 444.5,-118.5 "/>
<text text-anchor="start" x="327.5" y="-103.3" font-family="Times,serif" font-size="14.00">index</text>
<polyline fill="none" stroke="black" points="319.5,-95.5 444.5,-95.5 "/>
<polyline fill="none" stroke="black" points="319.5,-71.5 444.5,-71.5 "/>
<text text-anchor="start" x="327.5" y="-56.3" font-family="Times,serif" font-size="14.00">_layout</text>
</g>
<!-- CommentsController -->
<g id="node13" class="node"><title>CommentsController</title>
<path fill="none" stroke="black" d="M-212,31.5C-212,31.5 -104,31.5 -104,31.5 -98,31.5 -92,25.5 -92,19.5 -92,19.5 -92,-109.5 -92,-109.5 -92,-115.5 -98,-121.5 -104,-121.5 -104,-121.5 -212,-121.5 -212,-121.5 -218,-121.5 -224,-115.5 -224,-109.5 -224,-109.5 -224,19.5 -224,19.5 -224,25.5 -218,31.5 -212,31.5"/>
<text text-anchor="middle" x="-158" y="-106.3" font-family="Times,serif" font-size="14.00">CommentsController</text>
<polyline fill="none" stroke="black" points="-224,-98.5 -92,-98.5 "/>
<text text-anchor="start" x="-216" y="-83.3" font-family="Times,serif" font-size="14.00">create</text>
<text text-anchor="start" x="-216" y="-68.3" font-family="Times,serif" font-size="14.00">destroy</text>
<polyline fill="none" stroke="black" points="-224,-60.5 -92,-60.5 "/>
<polyline fill="none" stroke="black" points="-224,-36.5 -92,-36.5 "/>
<text text-anchor="start" x="-216" y="-21.3" font-family="Times,serif" font-size="14.00">_layout</text>
<text text-anchor="start" x="-216" y="-6.3" font-family="Times,serif" font-size="14.00">article</text>
<text text-anchor="start" x="-216" y="8.7" font-family="Times,serif" font-size="14.00">comment</text>
<text text-anchor="start" x="-216" y="23.7" font-family="Times,serif" font-size="14.00">comment_params</text>
</g>
<!-- PersonsController -->
<g id="node14" class="node"><title>PersonsController</title>
<path fill="none" stroke="black" d="M348,159.5C348,159.5 438,159.5 438,159.5 444,159.5 450,153.5 450,147.5 450,147.5 450,78.5 450,78.5 450,72.5 444,66.5 438,66.5 438,66.5 348,66.5 348,66.5 342,66.5 336,72.5 336,78.5 336,78.5 336,147.5 336,147.5 336,153.5 342,159.5 348,159.5"/>
<text text-anchor="middle" x="393" y="81.7" font-family="Times,serif" font-size="14.00">PersonsController</text>
<polyline fill="none" stroke="black" points="336,89.5 450,89.5 "/>
<text text-anchor="start" x="344" y="104.7" font-family="Times,serif" font-size="14.00">profile</text>
<polyline fill="none" stroke="black" points="336,112.5 450,112.5 "/>
<polyline fill="none" stroke="black" points="336,136.5 450,136.5 "/>
<text text-anchor="start" x="344" y="151.7" font-family="Times,serif" font-size="14.00">_layout</text>
</g>
</g>
</svg>
