<?xml version="1.0" encoding="UTF-8" standalone="no"?>
<!DOCTYPE svg PUBLIC "-//W3C//DTD SVG 1.1//EN"
 "http://www.w3.org/Graphics/SVG/1.1/DTD/svg11.dtd">
<!-- Generated by graphviz version 2.38.0 (20140413.2041)
 -->
<!-- Title: controllers_diagram Pages: 1 -->
<svg width="1763pt" height="1536pt"
 viewBox="0.00 0.00 1763.02 1535.84" xmlns="http://www.w3.org/2000/svg" xmlns:xlink="http://www.w3.org/1999/xlink">
<g id="graph0" class="graph" transform="scale(1 1) rotate(0) translate(894.419 730.734)">
<title>controllers_diagram</title>
<polygon fill="none" stroke="none" points="-894.419,805.11 -894.419,-730.734 868.606,-730.734 868.606,805.11 -894.419,805.11"/>
<!-- _diagram_info -->
<g id="node1" class="node"><title>_diagram_info</title>
<text text-anchor="start" x="275" y="-330.6" font-family="Times,serif" font-size="13.00">Controllers diagram</text>
<text text-anchor="start" x="275" y="-316.6" font-family="Times,serif" font-size="13.00">Date: May 29 2017 &#45; 20:36</text>
<text text-anchor="start" x="275" y="-302.6" font-family="Times,serif" font-size="13.00">Migration version: 20170529135722</text>
<text text-anchor="start" x="275" y="-288.6" font-family="Times,serif" font-size="13.00">Generated by RailRoady 1.5.2</text>
<text text-anchor="start" x="275" y="-274.6" font-family="Times,serif" font-size="13.00">http://railroady.prestonlee.com</text>
</g>
<!-- ChatRoomsController -->
<g id="node2" class="node"><title>ChatRoomsController</title>
<path fill="none" stroke="black" d="M-829.306,713.753C-829.306,713.753 -716.306,713.753 -716.306,713.753 -710.306,713.753 -704.306,707.753 -704.306,701.753 -704.306,701.753 -704.306,572.753 -704.306,572.753 -704.306,566.753 -710.306,560.753 -716.306,560.753 -716.306,560.753 -829.306,560.753 -829.306,560.753 -835.306,560.753 -841.306,566.753 -841.306,572.753 -841.306,572.753 -841.306,701.753 -841.306,701.753 -841.306,707.753 -835.306,713.753 -829.306,713.753"/>
<text text-anchor="middle" x="-772.806" y="575.953" font-family="Times,serif" font-size="14.00">ChatRoomsController</text>
<polyline fill="none" stroke="black" points="-841.306,583.753 -704.306,583.753 "/>
<text text-anchor="start" x="-833.306" y="598.953" font-family="Times,serif" font-size="14.00">create</text>
<text text-anchor="start" x="-833.306" y="613.953" font-family="Times,serif" font-size="14.00">index</text>
<text text-anchor="start" x="-833.306" y="628.953" font-family="Times,serif" font-size="14.00">new</text>
<text text-anchor="start" x="-833.306" y="643.953" font-family="Times,serif" font-size="14.00">show</text>
<polyline fill="none" stroke="black" points="-841.306,651.753 -704.306,651.753 "/>
<polyline fill="none" stroke="black" points="-841.306,675.753 -704.306,675.753 "/>
<text text-anchor="start" x="-833.306" y="690.953" font-family="Times,serif" font-size="14.00">_layout</text>
<text text-anchor="start" x="-833.306" y="705.953" font-family="Times,serif" font-size="14.00">chat_room_params</text>
</g>
<!-- ApplicationController -->
<g id="node3" class="node"><title>ApplicationController</title>
<path fill="none" stroke="black" d="M251.013,330.707C251.013,330.707 367.013,330.707 367.013,330.707 373.013,330.707 379.013,324.707 379.013,318.707 379.013,318.707 379.013,204.707 379.013,204.707 379.013,198.707 373.013,192.707 367.013,192.707 367.013,192.707 251.013,192.707 251.013,192.707 245.013,192.707 239.013,198.707 239.013,204.707 239.013,204.707 239.013,318.707 239.013,318.707 239.013,324.707 245.013,330.707 251.013,330.707"/>
<text text-anchor="middle" x="309.013" y="207.907" font-family="Times,serif" font-size="14.00">ApplicationController</text>
<polyline fill="none" stroke="black" points="239.013,215.707 379.013,215.707 "/>
<text text-anchor="start" x="247.013" y="230.907" font-family="Times,serif" font-size="14.00">after_sign_in_path_for</text>
<text text-anchor="start" x="247.013" y="245.907" font-family="Times,serif" font-size="14.00">card_needed?</text>
<text text-anchor="start" x="247.013" y="260.907" font-family="Times,serif" font-size="14.00">check_card</text>
<text text-anchor="start" x="247.013" y="275.907" font-family="Times,serif" font-size="14.00">require_user</text>
<polyline fill="none" stroke="black" points="239.013,283.707 379.013,283.707 "/>
<polyline fill="none" stroke="black" points="239.013,307.707 379.013,307.707 "/>
<text text-anchor="start" x="247.013" y="322.907" font-family="Times,serif" font-size="14.00">_layout</text>
</g>
<!-- ApplicationController&#45;&gt;ChatRoomsController -->
<g id="edge1" class="edge"><title>ApplicationController&#45;&gt;ChatRoomsController</title>
<path fill="none" stroke="black" d="M238.865,286.059C42.6837,354.161 -509.932,545.998 -704.214,613.442"/>
</g>
<!-- VascularSurgeryController -->
<g id="node4" class="node"><title>VascularSurgeryController</title>
<path fill="none" stroke="black" d="M-80.0502,710.418C-80.0502,710.418 58.9498,710.418 58.9498,710.418 64.9498,710.418 70.9498,704.418 70.9498,698.418 70.9498,698.418 70.9498,629.418 70.9498,629.418 70.9498,623.418 64.9498,617.418 58.9498,617.418 58.9498,617.418 -80.0502,617.418 -80.0502,617.418 -86.0502,617.418 -92.0502,623.418 -92.0502,629.418 -92.0502,629.418 -92.0502,698.418 -92.0502,698.418 -92.0502,704.418 -86.0502,710.418 -80.0502,710.418"/>
<text text-anchor="middle" x="-10.5502" y="632.618" font-family="Times,serif" font-size="14.00">VascularSurgeryController</text>
<polyline fill="none" stroke="black" points="-92.0502,640.418 70.9498,640.418 "/>
<text text-anchor="start" x="-84.0502" y="655.618" font-family="Times,serif" font-size="14.00">index</text>
<polyline fill="none" stroke="black" points="-92.0502,663.418 70.9498,663.418 "/>
<polyline fill="none" stroke="black" points="-92.0502,687.418 70.9498,687.418 "/>
<text text-anchor="start" x="-84.0502" y="702.618" font-family="Times,serif" font-size="14.00">_layout</text>
</g>
<!-- ApplicationController&#45;&gt;VascularSurgeryController -->
<g id="edge2" class="edge"><title>ApplicationController&#45;&gt;VascularSurgeryController</title>
<path fill="none" stroke="black" d="M254.078,330.85C189.032,412.718 82.481,546.826 26.4877,617.301"/>
</g>
<!-- MessagesController -->
<g id="node5" class="node"><title>MessagesController</title>
<path fill="none" stroke="black" d="M253.524,-71.6684C253.524,-71.6684 354.524,-71.6684 354.524,-71.6684 360.524,-71.6684 366.524,-77.6684 366.524,-83.6684 366.524,-83.6684 366.524,-153.668 366.524,-153.668 366.524,-159.668 360.524,-165.668 354.524,-165.668 354.524,-165.668 253.524,-165.668 253.524,-165.668 247.524,-165.668 241.524,-159.668 241.524,-153.668 241.524,-153.668 241.524,-83.6684 241.524,-83.6684 241.524,-77.6684 247.524,-71.6684 253.524,-71.6684"/>
<text text-anchor="middle" x="304.024" y="-150.468" font-family="Times,serif" font-size="14.00">MessagesController</text>
<polyline fill="none" stroke="black" points="241.524,-142.668 366.524,-142.668 "/>
<polyline fill="none" stroke="black" points="241.524,-118.668 366.524,-118.668 "/>
<polyline fill="none" stroke="black" points="241.524,-94.6684 366.524,-94.6684 "/>
<text text-anchor="start" x="249.524" y="-79.4684" font-family="Times,serif" font-size="14.00">_layout</text>
</g>
<!-- ApplicationController&#45;&gt;MessagesController -->
<g id="edge3" class="edge"><title>ApplicationController&#45;&gt;MessagesController</title>
<path fill="none" stroke="black" d="M308.104,192.383C307.1,115.883 305.513,-5.16186 304.644,-71.44"/>
</g>
<!-- AllergyDepartmentController -->
<g id="node6" class="node"><title>AllergyDepartmentController</title>
<path fill="none" stroke="black" d="M661.374,-200.86C661.374,-200.86 815.374,-200.86 815.374,-200.86 821.374,-200.86 827.374,-206.86 827.374,-212.86 827.374,-212.86 827.374,-296.86 827.374,-296.86 827.374,-302.86 821.374,-308.86 815.374,-308.86 815.374,-308.86 661.374,-308.86 661.374,-308.86 655.374,-308.86 649.374,-302.86 649.374,-296.86 649.374,-296.86 649.374,-212.86 649.374,-212.86 649.374,-206.86 655.374,-200.86 661.374,-200.86"/>
<text text-anchor="middle" x="738.374" y="-293.66" font-family="Times,serif" font-size="14.00">AllergyDepartmentController</text>
<polyline fill="none" stroke="black" points="649.374,-285.86 827.374,-285.86 "/>
<text text-anchor="start" x="657.374" y="-270.66" font-family="Times,serif" font-size="14.00">advice</text>
<text text-anchor="start" x="657.374" y="-255.66" font-family="Times,serif" font-size="14.00">index</text>
<polyline fill="none" stroke="black" points="649.374,-247.86 827.374,-247.86 "/>
<polyline fill="none" stroke="black" points="649.374,-223.86 827.374,-223.86 "/>
<text text-anchor="start" x="657.374" y="-208.66" font-family="Times,serif" font-size="14.00">_layout</text>
</g>
<!-- ApplicationController&#45;&gt;AllergyDepartmentController -->
<g id="edge4" class="edge"><title>ApplicationController&#45;&gt;AllergyDepartmentController</title>
<path fill="none" stroke="black" d="M366.473,192.577C452.964,88.5189 614.821,-106.213 693.347,-200.688"/>
</g>
<!-- CardsController -->
<g id="node7" class="node"><title>CardsController</title>
<path fill="none" stroke="black" d="M-47.6884,286.3C-47.6884,286.3 32.3116,286.3 32.3116,286.3 38.3116,286.3 44.3116,280.3 44.3116,274.3 44.3116,274.3 44.3116,175.3 44.3116,175.3 44.3116,169.3 38.3116,163.3 32.3116,163.3 32.3116,163.3 -47.6884,163.3 -47.6884,163.3 -53.6884,163.3 -59.6884,169.3 -59.6884,175.3 -59.6884,175.3 -59.6884,274.3 -59.6884,274.3 -59.6884,280.3 -53.6884,286.3 -47.6884,286.3"/>
<text text-anchor="middle" x="-7.68842" y="178.5" font-family="Times,serif" font-size="14.00">CardsController</text>
<polyline fill="none" stroke="black" points="-59.6884,186.3 44.3116,186.3 "/>
<text text-anchor="start" x="-51.6884" y="201.5" font-family="Times,serif" font-size="14.00">create</text>
<polyline fill="none" stroke="black" points="-59.6884,209.3 44.3116,209.3 "/>
<polyline fill="none" stroke="black" points="-59.6884,233.3 44.3116,233.3 "/>
<text text-anchor="start" x="-51.6884" y="248.5" font-family="Times,serif" font-size="14.00">_layout</text>
<text text-anchor="start" x="-51.6884" y="263.5" font-family="Times,serif" font-size="14.00">card_params</text>
<text text-anchor="start" x="-51.6884" y="278.5" font-family="Times,serif" font-size="14.00">set_card</text>
</g>
<!-- ApplicationController&#45;&gt;CardsController -->
<g id="edge5" class="edge"><title>ApplicationController&#45;&gt;CardsController</title>
<path fill="none" stroke="black" d="M238.726,253.516C180.048,246.678 97.7131,237.083 44.686,230.903"/>
</g>
<!-- ArticlesController -->
<g id="node9" class="node"><title>ArticlesController</title>
<path fill="none" stroke="black" d="M696.363,448.524C696.363,448.524 787.363,448.524 787.363,448.524 793.363,448.524 799.363,442.524 799.363,436.524 799.363,436.524 799.363,262.524 799.363,262.524 799.363,256.524 793.363,250.524 787.363,250.524 787.363,250.524 696.363,250.524 696.363,250.524 690.363,250.524 684.363,256.524 684.363,262.524 684.363,262.524 684.363,436.524 684.363,436.524 684.363,442.524 690.363,448.524 696.363,448.524"/>
<text text-anchor="middle" x="741.863" y="265.724" font-family="Times,serif" font-size="14.00">ArticlesController</text>
<polyline fill="none" stroke="black" points="684.363,273.524 799.363,273.524 "/>
<text text-anchor="start" x="692.363" y="288.724" font-family="Times,serif" font-size="14.00">create</text>
<text text-anchor="start" x="692.363" y="303.724" font-family="Times,serif" font-size="14.00">destroy</text>
<text text-anchor="start" x="692.363" y="318.724" font-family="Times,serif" font-size="14.00">index</text>
<text text-anchor="start" x="692.363" y="333.724" font-family="Times,serif" font-size="14.00">new</text>
<text text-anchor="start" x="692.363" y="348.724" font-family="Times,serif" font-size="14.00">show</text>
<text text-anchor="start" x="692.363" y="363.724" font-family="Times,serif" font-size="14.00">update</text>
<polyline fill="none" stroke="black" points="684.363,371.524 799.363,371.524 "/>
<polyline fill="none" stroke="black" points="684.363,395.524 799.363,395.524 "/>
<text text-anchor="start" x="692.363" y="410.724" font-family="Times,serif" font-size="14.00">_layout</text>
<text text-anchor="start" x="692.363" y="425.724" font-family="Times,serif" font-size="14.00">article</text>
<text text-anchor="start" x="692.363" y="440.724" font-family="Times,serif" font-size="14.00">article_params</text>
</g>
<!-- ApplicationController&#45;&gt;ArticlesController -->
<g id="edge7" class="edge"><title>ApplicationController&#45;&gt;ArticlesController</title>
<path fill="none" stroke="black" d="M379.039,275.914C463.86,293.123 605.159,321.79 684.065,337.798"/>
</g>
<!-- HemodialysisDepartmentController -->
<g id="node10" class="node"><title>HemodialysisDepartmentController</title>
<path fill="none" stroke="black" d="M-436.178,800.61C-436.178,800.61 -248.178,800.61 -248.178,800.61 -242.178,800.61 -236.178,794.61 -236.178,788.61 -236.178,788.61 -236.178,719.61 -236.178,719.61 -236.178,713.61 -242.178,707.61 -248.178,707.61 -248.178,707.61 -436.178,707.61 -436.178,707.61 -442.178,707.61 -448.178,713.61 -448.178,719.61 -448.178,719.61 -448.178,788.61 -448.178,788.61 -448.178,794.61 -442.178,800.61 -436.178,800.61"/>
<text text-anchor="middle" x="-342.178" y="722.81" font-family="Times,serif" font-size="14.00">HemodialysisDepartmentController</text>
<polyline fill="none" stroke="black" points="-448.178,730.61 -236.178,730.61 "/>
<text text-anchor="start" x="-440.178" y="745.81" font-family="Times,serif" font-size="14.00">index</text>
<polyline fill="none" stroke="black" points="-448.178,753.61 -236.178,753.61 "/>
<polyline fill="none" stroke="black" points="-448.178,777.61 -236.178,777.61 "/>
<text text-anchor="start" x="-440.178" y="792.81" font-family="Times,serif" font-size="14.00">_layout</text>
</g>
<!-- ApplicationController&#45;&gt;HemodialysisDepartmentController -->
<g id="edge8" class="edge"><title>ApplicationController&#45;&gt;HemodialysisDepartmentController</title>
<path fill="none" stroke="black" d="M238.705,314.871C110.609,411.732 -158.764,615.421 -280.331,707.344"/>
</g>
<!-- TraumatologicalDepartmentController -->
<g id="node11" class="node"><title>TraumatologicalDepartmentController</title>
<path fill="none" stroke="black" d="M649.606,781.35C649.606,781.35 852.606,781.35 852.606,781.35 858.606,781.35 864.606,775.35 864.606,769.35 864.606,769.35 864.606,700.35 864.606,700.35 864.606,694.35 858.606,688.35 852.606,688.35 852.606,688.35 649.606,688.35 649.606,688.35 643.606,688.35 637.606,694.35 637.606,700.35 637.606,700.35 637.606,769.35 637.606,769.35 637.606,775.35 643.606,781.35 649.606,781.35"/>
<text text-anchor="middle" x="751.106" y="703.55" font-family="Times,serif" font-size="14.00">TraumatologicalDepartmentController</text>
<polyline fill="none" stroke="black" points="637.606,711.35 864.606,711.35 "/>
<text text-anchor="start" x="645.606" y="726.55" font-family="Times,serif" font-size="14.00">index</text>
<polyline fill="none" stroke="black" points="637.606,734.35 864.606,734.35 "/>
<polyline fill="none" stroke="black" points="637.606,758.35 864.606,758.35 "/>
<text text-anchor="start" x="645.606" y="773.55" font-family="Times,serif" font-size="14.00">_layout</text>
</g>
<!-- ApplicationController&#45;&gt;TraumatologicalDepartmentController -->
<g id="edge9" class="edge"><title>ApplicationController&#45;&gt;TraumatologicalDepartmentController</title>
<path fill="none" stroke="black" d="M373.533,330.76C464.843,428.482 629.337,604.529 707.534,688.218"/>
</g>
<!-- WelcomeController -->
<g id="node12" class="node"><title>WelcomeController</title>
<path fill="none" stroke="black" d="M258.543,759.243C258.543,759.243 359.543,759.243 359.543,759.243 365.543,759.243 371.543,753.243 371.543,747.243 371.543,747.243 371.543,678.243 371.543,678.243 371.543,672.243 365.543,666.243 359.543,666.243 359.543,666.243 258.543,666.243 258.543,666.243 252.543,666.243 246.543,672.243 246.543,678.243 246.543,678.243 246.543,747.243 246.543,747.243 246.543,753.243 252.543,759.243 258.543,759.243"/>
<text text-anchor="middle" x="309.043" y="681.443" font-family="Times,serif" font-size="14.00">WelcomeController</text>
<polyline fill="none" stroke="black" points="246.543,689.243 371.543,689.243 "/>
<text text-anchor="start" x="254.543" y="704.443" font-family="Times,serif" font-size="14.00">index</text>
<polyline fill="none" stroke="black" points="246.543,712.243 371.543,712.243 "/>
<polyline fill="none" stroke="black" points="246.543,736.243 371.543,736.243 "/>
<text text-anchor="start" x="254.543" y="751.443" font-family="Times,serif" font-size="14.00">_layout</text>
</g>
<!-- ApplicationController&#45;&gt;WelcomeController -->
<g id="edge10" class="edge"><title>ApplicationController&#45;&gt;WelcomeController</title>
<path fill="none" stroke="black" d="M309.017,331.193C309.024,424.106 309.035,586.325 309.04,665.949"/>
</g>
<!-- CommentsController -->
<g id="node13" class="node"><title>CommentsController</title>
<path fill="none" stroke="black" d="M-442.589,401.991C-442.589,401.991 -334.589,401.991 -334.589,401.991 -328.589,401.991 -322.589,395.991 -322.589,389.991 -322.589,389.991 -322.589,260.991 -322.589,260.991 -322.589,254.991 -328.589,248.991 -334.589,248.991 -334.589,248.991 -442.589,248.991 -442.589,248.991 -448.589,248.991 -454.589,254.991 -454.589,260.991 -454.589,260.991 -454.589,389.991 -454.589,389.991 -454.589,395.991 -448.589,401.991 -442.589,401.991"/>
<text text-anchor="middle" x="-388.589" y="264.191" font-family="Times,serif" font-size="14.00">CommentsController</text>
<polyline fill="none" stroke="black" points="-454.589,271.991 -322.589,271.991 "/>
<text text-anchor="start" x="-446.589" y="287.191" font-family="Times,serif" font-size="14.00">create</text>
<text text-anchor="start" x="-446.589" y="302.191" font-family="Times,serif" font-size="14.00">destroy</text>
<polyline fill="none" stroke="black" points="-454.589,309.991 -322.589,309.991 "/>
<polyline fill="none" stroke="black" points="-454.589,333.991 -322.589,333.991 "/>
<text text-anchor="start" x="-446.589" y="349.191" font-family="Times,serif" font-size="14.00">_layout</text>
<text text-anchor="start" x="-446.589" y="364.191" font-family="Times,serif" font-size="14.00">article</text>
<text text-anchor="start" x="-446.589" y="379.191" font-family="Times,serif" font-size="14.00">comment</text>
<text text-anchor="start" x="-446.589" y="394.191" font-family="Times,serif" font-size="14.00">comment_params</text>
</g>
<!-- ApplicationController&#45;&gt;CommentsController -->
<g id="edge11" class="edge"><title>ApplicationController&#45;&gt;CommentsController</title>
<path fill="none" stroke="black" d="M238.857,269.616C186.229,275.439 112.396,283.375 47.5116,289.5 -83.5229,301.868 -236.935,313.98 -322.422,320.517"/>
</g>
<!-- PersonsController -->
<g id="node14" class="node"><title>PersonsController</title>
<path fill="none" stroke="black" d="M703.853,95.4589C703.853,95.4589 793.853,95.4589 793.853,95.4589 799.853,95.4589 805.853,89.4589 805.853,83.4589 805.853,83.4589 805.853,14.4589 805.853,14.4589 805.853,8.45886 799.853,2.45886 793.853,2.45886 793.853,2.45886 703.853,2.45886 703.853,2.45886 697.853,2.45886 691.853,8.45886 691.853,14.4589 691.853,14.4589 691.853,83.4589 691.853,83.4589 691.853,89.4589 697.853,95.4589 703.853,95.4589"/>
<text text-anchor="middle" x="748.853" y="17.6589" font-family="Times,serif" font-size="14.00">PersonsController</text>
<polyline fill="none" stroke="black" points="691.853,25.4589 805.853,25.4589 "/>
<text text-anchor="start" x="699.853" y="40.6589" font-family="Times,serif" font-size="14.00">profile</text>
<polyline fill="none" stroke="black" points="691.853,48.4589 805.853,48.4589 "/>
<polyline fill="none" stroke="black" points="691.853,72.4589 805.853,72.4589 "/>
<text text-anchor="start" x="699.853" y="87.6589" font-family="Times,serif" font-size="14.00">_layout</text>
</g>
<!-- ApplicationController&#45;&gt;PersonsController -->
<g id="edge12" class="edge"><title>ApplicationController&#45;&gt;PersonsController</title>
<path fill="none" stroke="black" d="M379.193,227.761C465.779,185.88 611.339,115.474 691.536,76.6829"/>
</g>
<!-- DeviseController -->
<g id="node21" class="node"><title>DeviseController</title>
<path fill="none" stroke="black" d="M-101.604,-10.4366C-101.604,-10.4366 65.3961,-10.4366 65.3961,-10.4366 71.3961,-10.4366 77.3961,-16.4366 77.3961,-22.4366 77.3961,-22.4366 77.3961,-390.437 77.3961,-390.437 77.3961,-396.437 71.3961,-402.437 65.3961,-402.437 65.3961,-402.437 -101.604,-402.437 -101.604,-402.437 -107.604,-402.437 -113.604,-396.437 -113.604,-390.437 -113.604,-390.437 -113.604,-22.4366 -113.604,-22.4366 -113.604,-16.4366 -107.604,-10.4366 -101.604,-10.4366"/>
<text text-anchor="middle" x="-18.1039" y="-387.237" font-family="Times,serif" font-size="14.00">DeviseController</text>
<polyline fill="none" stroke="black" points="-113.604,-379.437 77.3961,-379.437 "/>
<text text-anchor="start" x="-105.604" y="-364.237" font-family="Times,serif" font-size="14.00">_prefixes</text>
<polyline fill="none" stroke="black" points="-113.604,-356.437 77.3961,-356.437 "/>
<text text-anchor="start" x="-105.604" y="-341.237" font-family="Times,serif" font-size="14.00">assert_is_devise_resource!</text>
<text text-anchor="start" x="-105.604" y="-326.237" font-family="Times,serif" font-size="14.00">clean_up_passwords</text>
<text text-anchor="start" x="-105.604" y="-311.237" font-family="Times,serif" font-size="14.00">devise_i18n_options</text>
<text text-anchor="start" x="-105.604" y="-296.237" font-family="Times,serif" font-size="14.00">devise_mapping</text>
<text text-anchor="start" x="-105.604" y="-281.237" font-family="Times,serif" font-size="14.00">find_message</text>
<text text-anchor="start" x="-105.604" y="-266.237" font-family="Times,serif" font-size="14.00">navigational_formats</text>
<text text-anchor="start" x="-105.604" y="-251.237" font-family="Times,serif" font-size="14.00">require_no_authentication</text>
<text text-anchor="start" x="-105.604" y="-236.237" font-family="Times,serif" font-size="14.00">resource</text>
<text text-anchor="start" x="-105.604" y="-221.237" font-family="Times,serif" font-size="14.00">resource=</text>
<text text-anchor="start" x="-105.604" y="-206.237" font-family="Times,serif" font-size="14.00">resource_class</text>
<text text-anchor="start" x="-105.604" y="-191.237" font-family="Times,serif" font-size="14.00">resource_name</text>
<text text-anchor="start" x="-105.604" y="-176.237" font-family="Times,serif" font-size="14.00">resource_params</text>
<text text-anchor="start" x="-105.604" y="-161.237" font-family="Times,serif" font-size="14.00">respond_with_navigational</text>
<text text-anchor="start" x="-105.604" y="-146.237" font-family="Times,serif" font-size="14.00">scope_name</text>
<text text-anchor="start" x="-105.604" y="-131.237" font-family="Times,serif" font-size="14.00">set_flash_message</text>
<text text-anchor="start" x="-105.604" y="-116.237" font-family="Times,serif" font-size="14.00">set_flash_message!</text>
<text text-anchor="start" x="-105.604" y="-101.237" font-family="Times,serif" font-size="14.00">set_minimum_password_length</text>
<text text-anchor="start" x="-105.604" y="-86.2366" font-family="Times,serif" font-size="14.00">signed_in_resource</text>
<text text-anchor="start" x="-105.604" y="-71.2366" font-family="Times,serif" font-size="14.00">successfully_sent?</text>
<text text-anchor="start" x="-105.604" y="-56.2366" font-family="Times,serif" font-size="14.00">translation_scope</text>
<text text-anchor="start" x="-105.604" y="-41.2366" font-family="Times,serif" font-size="14.00">unknown_action!</text>
<polyline fill="none" stroke="black" points="-113.604,-33.4366 77.3961,-33.4366 "/>
<text text-anchor="start" x="-105.604" y="-18.2366" font-family="Times,serif" font-size="14.00">_layout</text>
</g>
<!-- ApplicationController&#45;&gt;DeviseController -->
<g id="edge19" class="edge"><title>ApplicationController&#45;&gt;DeviseController</title>
<path fill="none" stroke="black" d="M260.746,192.631C212.672,123.832 137.562,16.3402 77.4015,-69.7568"/>
</g>
<!-- RegistrationsController -->
<g id="node8" class="node"><title>RegistrationsController</title>
<path fill="none" stroke="black" d="M-832.222,110.023C-832.222,110.023 -713.222,110.023 -713.222,110.023 -707.222,110.023 -701.222,104.023 -701.222,98.0229 -701.222,98.0229 -701.222,-15.9771 -701.222,-15.9771 -701.222,-21.9771 -707.222,-27.9771 -713.222,-27.9771 -713.222,-27.9771 -832.222,-27.9771 -832.222,-27.9771 -838.222,-27.9771 -844.222,-21.9771 -844.222,-15.9771 -844.222,-15.9771 -844.222,98.0229 -844.222,98.0229 -844.222,104.023 -838.222,110.023 -832.222,110.023"/>
<text text-anchor="middle" x="-772.722" y="-12.7771" font-family="Times,serif" font-size="14.00">RegistrationsController</text>
<polyline fill="none" stroke="black" points="-844.222,-4.9771 -701.222,-4.9771 "/>
<text text-anchor="start" x="-836.222" y="10.2229" font-family="Times,serif" font-size="14.00">create</text>
<text text-anchor="start" x="-836.222" y="25.2229" font-family="Times,serif" font-size="14.00">new</text>
<text text-anchor="start" x="-836.222" y="40.2229" font-family="Times,serif" font-size="14.00">update</text>
<polyline fill="none" stroke="black" points="-844.222,48.0229 -701.222,48.0229 "/>
<polyline fill="none" stroke="black" points="-844.222,72.0229 -701.222,72.0229 "/>
<text text-anchor="start" x="-836.222" y="87.2229" font-family="Times,serif" font-size="14.00">_layout</text>
<text text-anchor="start" x="-836.222" y="102.223" font-family="Times,serif" font-size="14.00">user_params</text>
</g>
<!-- Devise::OmniauthCallbacksController -->
<g id="node15" class="node"><title>Devise::OmniauthCallbacksController</title>
<path fill="none" stroke="black" d="M121.187,-512.347C121.187,-512.347 322.187,-512.347 322.187,-512.347 328.187,-512.347 334.187,-518.347 334.187,-524.347 334.187,-524.347 334.187,-652.347 334.187,-652.347 334.187,-658.347 328.187,-664.347 322.187,-664.347 322.187,-664.347 121.187,-664.347 121.187,-664.347 115.187,-664.347 109.187,-658.347 109.187,-652.347 109.187,-652.347 109.187,-524.347 109.187,-524.347 109.187,-518.347 115.187,-512.347 121.187,-512.347"/>
<text text-anchor="middle" x="221.687" y="-649.147" font-family="Times,serif" font-size="14.00">Devise::OmniauthCallbacksController</text>
<polyline fill="none" stroke="black" points="109.187,-641.347 334.187,-641.347 "/>
<text text-anchor="start" x="117.187" y="-626.147" font-family="Times,serif" font-size="14.00">failure</text>
<text text-anchor="start" x="117.187" y="-611.147" font-family="Times,serif" font-size="14.00">passthru</text>
<polyline fill="none" stroke="black" points="109.187,-603.347 334.187,-603.347 "/>
<text text-anchor="start" x="117.187" y="-588.147" font-family="Times,serif" font-size="14.00">after_omniauth_failure_path_for</text>
<text text-anchor="start" x="117.187" y="-573.147" font-family="Times,serif" font-size="14.00">failed_strategy</text>
<text text-anchor="start" x="117.187" y="-558.147" font-family="Times,serif" font-size="14.00">failure_message</text>
<text text-anchor="start" x="117.187" y="-543.147" font-family="Times,serif" font-size="14.00">translation_scope</text>
<polyline fill="none" stroke="black" points="109.187,-535.347 334.187,-535.347 "/>
<text text-anchor="start" x="117.187" y="-520.147" font-family="Times,serif" font-size="14.00">_layout</text>
</g>
<!-- Devise::PasswordsController -->
<g id="node16" class="node"><title>Devise::PasswordsController</title>
<path fill="none" stroke="black" d="M-356.29,-529.234C-356.29,-529.234 -78.2898,-529.234 -78.2898,-529.234 -72.2898,-529.234 -66.2898,-535.234 -66.2898,-541.234 -66.2898,-541.234 -66.2898,-714.234 -66.2898,-714.234 -66.2898,-720.234 -72.2898,-726.234 -78.2898,-726.234 -78.2898,-726.234 -356.29,-726.234 -356.29,-726.234 -362.29,-726.234 -368.29,-720.234 -368.29,-714.234 -368.29,-714.234 -368.29,-541.234 -368.29,-541.234 -368.29,-535.234 -362.29,-529.234 -356.29,-529.234"/>
<text text-anchor="middle" x="-217.29" y="-711.034" font-family="Times,serif" font-size="14.00">Devise::PasswordsController</text>
<polyline fill="none" stroke="black" points="-368.29,-703.234 -66.2898,-703.234 "/>
<text text-anchor="start" x="-360.29" y="-688.034" font-family="Times,serif" font-size="14.00">create</text>
<text text-anchor="start" x="-360.29" y="-673.034" font-family="Times,serif" font-size="14.00">edit</text>
<text text-anchor="start" x="-360.29" y="-658.034" font-family="Times,serif" font-size="14.00">new</text>
<text text-anchor="start" x="-360.29" y="-643.034" font-family="Times,serif" font-size="14.00">update</text>
<polyline fill="none" stroke="black" points="-368.29,-635.234 -66.2898,-635.234 "/>
<text text-anchor="start" x="-360.29" y="-620.034" font-family="Times,serif" font-size="14.00">after_resetting_password_path_for</text>
<text text-anchor="start" x="-360.29" y="-605.034" font-family="Times,serif" font-size="14.00">after_sending_reset_password_instructions_path_for</text>
<text text-anchor="start" x="-360.29" y="-590.034" font-family="Times,serif" font-size="14.00">assert_reset_token_passed</text>
<text text-anchor="start" x="-360.29" y="-575.034" font-family="Times,serif" font-size="14.00">translation_scope</text>
<text text-anchor="start" x="-360.29" y="-560.034" font-family="Times,serif" font-size="14.00">unlockable?</text>
<polyline fill="none" stroke="black" points="-368.29,-552.234 -66.2898,-552.234 "/>
<text text-anchor="start" x="-360.29" y="-537.034" font-family="Times,serif" font-size="14.00">_layout</text>
</g>
<!-- Devise::UnlocksController -->
<g id="node17" class="node"><title>Devise::UnlocksController</title>
<path fill="none" stroke="black" d="M599.16,-553.593C599.16,-553.593 831.16,-553.593 831.16,-553.593 837.16,-553.593 843.16,-559.593 843.16,-565.593 843.16,-565.593 843.16,-693.593 843.16,-693.593 843.16,-699.593 837.16,-705.593 831.16,-705.593 831.16,-705.593 599.16,-705.593 599.16,-705.593 593.16,-705.593 587.16,-699.593 587.16,-693.593 587.16,-693.593 587.16,-565.593 587.16,-565.593 587.16,-559.593 593.16,-553.593 599.16,-553.593"/>
<text text-anchor="middle" x="715.16" y="-690.393" font-family="Times,serif" font-size="14.00">Devise::UnlocksController</text>
<polyline fill="none" stroke="black" points="587.16,-682.593 843.16,-682.593 "/>
<text text-anchor="start" x="595.16" y="-667.393" font-family="Times,serif" font-size="14.00">create</text>
<text text-anchor="start" x="595.16" y="-652.393" font-family="Times,serif" font-size="14.00">new</text>
<text text-anchor="start" x="595.16" y="-637.393" font-family="Times,serif" font-size="14.00">show</text>
<polyline fill="none" stroke="black" points="587.16,-629.593 843.16,-629.593 "/>
<text text-anchor="start" x="595.16" y="-614.393" font-family="Times,serif" font-size="14.00">after_sending_unlock_instructions_path_for</text>
<text text-anchor="start" x="595.16" y="-599.393" font-family="Times,serif" font-size="14.00">after_unlock_path_for</text>
<text text-anchor="start" x="595.16" y="-584.393" font-family="Times,serif" font-size="14.00">translation_scope</text>
<polyline fill="none" stroke="black" points="587.16,-576.593 843.16,-576.593 "/>
<text text-anchor="start" x="595.16" y="-561.393" font-family="Times,serif" font-size="14.00">_layout</text>
</g>
<!-- Devise::RegistrationsController -->
<g id="node18" class="node"><title>Devise::RegistrationsController</title>
<path fill="none" stroke="black" d="M-349.343,193.782C-349.343,193.782 -180.343,193.782 -180.343,193.782 -174.343,193.782 -168.343,187.782 -168.343,181.782 -168.343,181.782 -168.343,-111.218 -168.343,-111.218 -168.343,-117.218 -174.343,-123.218 -180.343,-123.218 -180.343,-123.218 -349.343,-123.218 -349.343,-123.218 -355.343,-123.218 -361.343,-117.218 -361.343,-111.218 -361.343,-111.218 -361.343,181.782 -361.343,181.782 -361.343,187.782 -355.343,193.782 -349.343,193.782"/>
<text text-anchor="middle" x="-264.843" y="-108.018" font-family="Times,serif" font-size="14.00">Devise::RegistrationsController</text>
<polyline fill="none" stroke="black" points="-361.343,-100.218 -168.343,-100.218 "/>
<text text-anchor="start" x="-353.343" y="-85.0183" font-family="Times,serif" font-size="14.00">cancel</text>
<text text-anchor="start" x="-353.343" y="-70.0183" font-family="Times,serif" font-size="14.00">create</text>
<text text-anchor="start" x="-353.343" y="-55.0183" font-family="Times,serif" font-size="14.00">destroy</text>
<text text-anchor="start" x="-353.343" y="-40.0183" font-family="Times,serif" font-size="14.00">edit</text>
<text text-anchor="start" x="-353.343" y="-25.0183" font-family="Times,serif" font-size="14.00">new</text>
<text text-anchor="start" x="-353.343" y="-10.0183" font-family="Times,serif" font-size="14.00">update</text>
<polyline fill="none" stroke="black" points="-361.343,-2.21832 -168.343,-2.21832 "/>
<text text-anchor="start" x="-353.343" y="12.9817" font-family="Times,serif" font-size="14.00">account_update_params</text>
<text text-anchor="start" x="-353.343" y="27.9817" font-family="Times,serif" font-size="14.00">after_inactive_sign_up_path_for</text>
<text text-anchor="start" x="-353.343" y="42.9817" font-family="Times,serif" font-size="14.00">after_sign_up_path_for</text>
<text text-anchor="start" x="-353.343" y="57.9817" font-family="Times,serif" font-size="14.00">after_update_path_for</text>
<text text-anchor="start" x="-353.343" y="72.9817" font-family="Times,serif" font-size="14.00">authenticate_scope!</text>
<text text-anchor="start" x="-353.343" y="87.9817" font-family="Times,serif" font-size="14.00">build_resource</text>
<text text-anchor="start" x="-353.343" y="102.982" font-family="Times,serif" font-size="14.00">sign_up</text>
<text text-anchor="start" x="-353.343" y="117.982" font-family="Times,serif" font-size="14.00">sign_up_params</text>
<text text-anchor="start" x="-353.343" y="132.982" font-family="Times,serif" font-size="14.00">translation_scope</text>
<text text-anchor="start" x="-353.343" y="147.982" font-family="Times,serif" font-size="14.00">update_needs_confirmation?</text>
<text text-anchor="start" x="-353.343" y="162.982" font-family="Times,serif" font-size="14.00">update_resource</text>
<polyline fill="none" stroke="black" points="-361.343,170.782 -168.343,170.782 "/>
<text text-anchor="start" x="-353.343" y="185.982" font-family="Times,serif" font-size="14.00">_layout</text>
</g>
<!-- Devise::RegistrationsController&#45;&gt;RegistrationsController -->
<g id="edge6" class="edge"><title>Devise::RegistrationsController&#45;&gt;RegistrationsController</title>
<path fill="none" stroke="black" d="M-361.567,36.3751C-460.572,37.4943 -612.141,39.2076 -700.948,40.2115"/>
</g>
<!-- Devise::ConfirmationsController -->
<g id="node19" class="node"><title>Devise::ConfirmationsController</title>
<path fill="none" stroke="black" d="M-878.419,-480.002C-878.419,-480.002 -602.419,-480.002 -602.419,-480.002 -596.419,-480.002 -590.419,-486.002 -590.419,-492.002 -590.419,-492.002 -590.419,-620.002 -590.419,-620.002 -590.419,-626.002 -596.419,-632.002 -602.419,-632.002 -602.419,-632.002 -878.419,-632.002 -878.419,-632.002 -884.419,-632.002 -890.419,-626.002 -890.419,-620.002 -890.419,-620.002 -890.419,-492.002 -890.419,-492.002 -890.419,-486.002 -884.419,-480.002 -878.419,-480.002"/>
<text text-anchor="middle" x="-740.419" y="-616.802" font-family="Times,serif" font-size="14.00">Devise::ConfirmationsController</text>
<polyline fill="none" stroke="black" points="-890.419,-609.002 -590.419,-609.002 "/>
<text text-anchor="start" x="-882.419" y="-593.802" font-family="Times,serif" font-size="14.00">create</text>
<text text-anchor="start" x="-882.419" y="-578.802" font-family="Times,serif" font-size="14.00">new</text>
<text text-anchor="start" x="-882.419" y="-563.802" font-family="Times,serif" font-size="14.00">show</text>
<polyline fill="none" stroke="black" points="-890.419,-556.002 -590.419,-556.002 "/>
<text text-anchor="start" x="-882.419" y="-540.802" font-family="Times,serif" font-size="14.00">after_confirmation_path_for</text>
<text text-anchor="start" x="-882.419" y="-525.802" font-family="Times,serif" font-size="14.00">after_resending_confirmation_instructions_path_for</text>
<text text-anchor="start" x="-882.419" y="-510.802" font-family="Times,serif" font-size="14.00">translation_scope</text>
<polyline fill="none" stroke="black" points="-890.419,-503.002 -590.419,-503.002 "/>
<text text-anchor="start" x="-882.419" y="-487.802" font-family="Times,serif" font-size="14.00">_layout</text>
</g>
<!-- Devise::SessionsController -->
<g id="node20" class="node"><title>Devise::SessionsController</title>
<path fill="none" stroke="black" d="M-479.624,-132.104C-479.624,-132.104 -339.624,-132.104 -339.624,-132.104 -333.624,-132.104 -327.624,-138.104 -327.624,-144.104 -327.624,-144.104 -327.624,-332.104 -327.624,-332.104 -327.624,-338.104 -333.624,-344.104 -339.624,-344.104 -339.624,-344.104 -479.624,-344.104 -479.624,-344.104 -485.624,-344.104 -491.624,-338.104 -491.624,-332.104 -491.624,-332.104 -491.624,-144.104 -491.624,-144.104 -491.624,-138.104 -485.624,-132.104 -479.624,-132.104"/>
<text text-anchor="middle" x="-409.624" y="-328.904" font-family="Times,serif" font-size="14.00">Devise::SessionsController</text>
<polyline fill="none" stroke="black" points="-491.624,-321.104 -327.624,-321.104 "/>
<text text-anchor="start" x="-483.624" y="-305.904" font-family="Times,serif" font-size="14.00">create</text>
<text text-anchor="start" x="-483.624" y="-290.904" font-family="Times,serif" font-size="14.00">destroy</text>
<text text-anchor="start" x="-483.624" y="-275.904" font-family="Times,serif" font-size="14.00">new</text>
<polyline fill="none" stroke="black" points="-491.624,-268.104 -327.624,-268.104 "/>
<text text-anchor="start" x="-483.624" y="-252.904" font-family="Times,serif" font-size="14.00">auth_options</text>
<text text-anchor="start" x="-483.624" y="-237.904" font-family="Times,serif" font-size="14.00">serialize_options</text>
<text text-anchor="start" x="-483.624" y="-222.904" font-family="Times,serif" font-size="14.00">sign_in_params</text>
<text text-anchor="start" x="-483.624" y="-207.904" font-family="Times,serif" font-size="14.00">translation_scope</text>
<polyline fill="none" stroke="black" points="-491.624,-200.104 -327.624,-200.104 "/>
<text text-anchor="start" x="-483.624" y="-184.904" font-family="Times,serif" font-size="14.00">_layout</text>
<text text-anchor="start" x="-483.624" y="-169.904" font-family="Times,serif" font-size="14.00">all_signed_out?</text>
<text text-anchor="start" x="-483.624" y="-154.904" font-family="Times,serif" font-size="14.00">respond_to_on_destroy</text>
<text text-anchor="start" x="-483.624" y="-139.904" font-family="Times,serif" font-size="14.00">verify_signed_out_user</text>
</g>
<!-- DeviseController&#45;&gt;Devise::OmniauthCallbacksController -->
<g id="edge13" class="edge"><title>DeviseController&#45;&gt;Devise::OmniauthCallbacksController</title>
<path fill="none" stroke="black" d="M77.5293,-358.75C110.618,-411.45 146.28,-468.248 173.856,-512.168"/>
</g>
<!-- DeviseController&#45;&gt;Devise::PasswordsController -->
<g id="edge14" class="edge"><title>DeviseController&#45;&gt;Devise::PasswordsController</title>
<path fill="none" stroke="black" d="M-110.845,-402.593C-131.603,-446.499 -152.761,-491.249 -170.687,-529.164"/>
</g>
<!-- DeviseController&#45;&gt;Devise::UnlocksController -->
<g id="edge15" class="edge"><title>DeviseController&#45;&gt;Devise::UnlocksController</title>
<path fill="none" stroke="black" d="M77.7576,-261.757C208.097,-336.974 441.591,-471.72 586.901,-555.577"/>
</g>
<!-- DeviseController&#45;&gt;Devise::RegistrationsController -->
<g id="edge16" class="edge"><title>DeviseController&#45;&gt;Devise::RegistrationsController</title>
<path fill="none" stroke="black" d="M-113.853,-112.636C-131.734,-95.1189 -150.431,-76.8024 -168.335,-59.2629"/>
</g>
<!-- DeviseController&#45;&gt;Devise::ConfirmationsController -->
<g id="edge17" class="edge"><title>DeviseController&#45;&gt;Devise::ConfirmationsController</title>
<path fill="none" stroke="black" d="M-113.649,-252.676C-235.29,-311.544 -446.828,-413.918 -590.155,-483.282"/>
</g>
<!-- DeviseController&#45;&gt;Devise::SessionsController -->
<g id="edge18" class="edge"><title>DeviseController&#45;&gt;Devise::SessionsController</title>
<path fill="none" stroke="black" d="M-113.63,-214.163C-179.05,-219.454 -264.923,-226.4 -327.316,-231.447"/>
</g>
<!-- Erd::ErdController -->
<g id="node22" class="node"><title>Erd::ErdController</title>
<path fill="none" stroke="black" d="M-699.5,355.5C-699.5,355.5 -604.5,355.5 -604.5,355.5 -598.5,355.5 -592.5,349.5 -592.5,343.5 -592.5,343.5 -592.5,214.5 -592.5,214.5 -592.5,208.5 -598.5,202.5 -604.5,202.5 -604.5,202.5 -699.5,202.5 -699.5,202.5 -705.5,202.5 -711.5,208.5 -711.5,214.5 -711.5,214.5 -711.5,343.5 -711.5,343.5 -711.5,349.5 -705.5,355.5 -699.5,355.5"/>
<text text-anchor="middle" x="-652" y="217.7" font-family="Times,serif" font-size="14.00">Erd::ErdController</text>
<polyline fill="none" stroke="black" points="-711.5,225.5 -592.5,225.5 "/>
<text text-anchor="start" x="-703.5" y="240.7" font-family="Times,serif" font-size="14.00">index</text>
<text text-anchor="start" x="-703.5" y="255.7" font-family="Times,serif" font-size="14.00">migrate</text>
<text text-anchor="start" x="-703.5" y="270.7" font-family="Times,serif" font-size="14.00">update</text>
<polyline fill="none" stroke="black" points="-711.5,278.5 -592.5,278.5 "/>
<polyline fill="none" stroke="black" points="-711.5,302.5 -592.5,302.5 "/>
<text text-anchor="start" x="-703.5" y="317.7" font-family="Times,serif" font-size="14.00">_layout</text>
<text text-anchor="start" x="-703.5" y="332.7" font-family="Times,serif" font-size="14.00">gsub_file</text>
<text text-anchor="start" x="-703.5" y="347.7" font-family="Times,serif" font-size="14.00">render_plain</text>
</g>
<!-- Erd::ApplicationController -->
<g id="node23" class="node"><title>Erd::ApplicationController</title>
<path fill="none" stroke="black" d="M-699.5,-268C-699.5,-268 -560.5,-268 -560.5,-268 -554.5,-268 -548.5,-274 -548.5,-280 -548.5,-280 -548.5,-350 -548.5,-350 -548.5,-356 -554.5,-362 -560.5,-362 -560.5,-362 -699.5,-362 -699.5,-362 -705.5,-362 -711.5,-356 -711.5,-350 -711.5,-350 -711.5,-280 -711.5,-280 -711.5,-274 -705.5,-268 -699.5,-268"/>
<text text-anchor="middle" x="-630" y="-346.8" font-family="Times,serif" font-size="14.00">Erd::ApplicationController</text>
<polyline fill="none" stroke="black" points="-711.5,-339 -548.5,-339 "/>
<polyline fill="none" stroke="black" points="-711.5,-315 -548.5,-315 "/>
<polyline fill="none" stroke="black" points="-711.5,-291 -548.5,-291 "/>
<text text-anchor="start" x="-703.5" y="-275.8" font-family="Times,serif" font-size="14.00">_layout</text>
</g>
</g>
</svg>
