<?xml version="1.0" encoding="UTF-8" standalone="no"?>
<!DOCTYPE svg PUBLIC "-//W3C//DTD SVG 1.1//EN"
 "http://www.w3.org/Graphics/SVG/1.1/DTD/svg11.dtd">
<!-- Generated by graphviz version 2.38.0 (20140413.2041)
 -->
<!-- Title: models_diagram Pages: 1 -->
<svg width="942pt" height="1025pt"
 viewBox="0.00 0.00 942.26 1025.00" xmlns="http://www.w3.org/2000/svg" xmlns:xlink="http://www.w3.org/1999/xlink">
<g id="graph0" class="graph" transform="scale(1 1) rotate(0) translate(4 1021)">
<title>models_diagram</title>
<polygon fill="none" stroke="none" points="-4,4 -4,-1021 938.263,-1021 938.263,4 -4,4"/>
<!-- _diagram_info -->
<g id="node1" class="node"><title>_diagram_info</title>
<text text-anchor="start" x="188.816" y="-1002.6" font-family="Times,serif" font-size="13.00">Models diagram</text>
<text text-anchor="start" x="188.816" y="-988.6" font-family="Times,serif" font-size="13.00">Date: May 29 2017 &#45; 20:36</text>
<text text-anchor="start" x="188.816" y="-974.6" font-family="Times,serif" font-size="13.00">Migration version: 20170529135722</text>
<text text-anchor="start" x="188.816" y="-960.6" font-family="Times,serif" font-size="13.00">Generated by RailRoady 1.5.2</text>
<text text-anchor="start" x="188.816" y="-946.6" font-family="Times,serif" font-size="13.00">http://railroady.prestonlee.com</text>
</g>
<!-- ApplicationRecord -->
<g id="node2" class="node"><title>ApplicationRecord</title>
<ellipse fill="none" stroke="black" cx="489.816" cy="-978" rx="77.1866" ry="18"/>
<text text-anchor="middle" x="489.816" y="-974.3" font-family="Times,serif" font-size="14.00">ApplicationRecord</text>
</g>
<!-- Card -->
<g id="node3" class="node"><title>Card</title>
<path fill="none" stroke="black" d="M58.8157,-158.5C58.8157,-158.5 278.816,-158.5 278.816,-158.5 284.816,-158.5 290.816,-164.5 290.816,-170.5 290.816,-170.5 290.816,-417.5 290.816,-417.5 290.816,-423.5 284.816,-429.5 278.816,-429.5 278.816,-429.5 58.8157,-429.5 58.8157,-429.5 52.8157,-429.5 46.8157,-423.5 46.8157,-417.5 46.8157,-417.5 46.8157,-170.5 46.8157,-170.5 46.8157,-164.5 52.8157,-158.5 58.8157,-158.5"/>
<text text-anchor="middle" x="168.816" y="-414.3" font-family="Times,serif" font-size="14.00">Card</text>
<polyline fill="none" stroke="black" points="46.8157,-406.5 290.816,-406.5 "/>
<text text-anchor="start" x="54.8157" y="-391.3" font-family="Times,serif" font-size="14.00">id :integer</text>
<text text-anchor="start" x="54.8157" y="-376.3" font-family="Times,serif" font-size="14.00">user_id :integer</text>
<text text-anchor="start" x="54.8157" y="-361.3" font-family="Times,serif" font-size="14.00">first_name :character varying</text>
<text text-anchor="start" x="54.8157" y="-346.3" font-family="Times,serif" font-size="14.00">last_name :character varying</text>
<text text-anchor="start" x="54.8157" y="-331.3" font-family="Times,serif" font-size="14.00">surname :character varying</text>
<text text-anchor="start" x="54.8157" y="-316.3" font-family="Times,serif" font-size="14.00">gender :integer</text>
<text text-anchor="start" x="54.8157" y="-301.3" font-family="Times,serif" font-size="14.00">dispancery :boolean</text>
<text text-anchor="start" x="54.8157" y="-286.3" font-family="Times,serif" font-size="14.00">home_phone :character varying</text>
<text text-anchor="start" x="54.8157" y="-271.3" font-family="Times,serif" font-size="14.00">work_phone :character varying</text>
<text text-anchor="start" x="54.8157" y="-256.3" font-family="Times,serif" font-size="14.00">location :character varying</text>
<text text-anchor="start" x="54.8157" y="-241.3" font-family="Times,serif" font-size="14.00">job_info :character varying</text>
<text text-anchor="start" x="54.8157" y="-226.3" font-family="Times,serif" font-size="14.00">contingent :character varying</text>
<text text-anchor="start" x="54.8157" y="-211.3" font-family="Times,serif" font-size="14.00">preferential_categories :character varying</text>
<text text-anchor="start" x="54.8157" y="-196.3" font-family="Times,serif" font-size="14.00">preferential_number :character varying</text>
<text text-anchor="start" x="54.8157" y="-181.3" font-family="Times,serif" font-size="14.00">created_at :timestamp without time zone</text>
<text text-anchor="start" x="54.8157" y="-166.3" font-family="Times,serif" font-size="14.00">updated_at :timestamp without time zone</text>
</g>
<!-- ApplicationRecord&#45;&gt;Card -->
<g id="edge1" class="edge"><title>ApplicationRecord&#45;&gt;Card</title>
<path fill="none" stroke="black" d="M452.159,-962.14C425.686,-949.916 391.289,-930.174 369.816,-903 259.875,-763.873 208.905,-562.093 186.1,-429.739"/>
</g>
<!-- Article -->
<g id="node4" class="node"><title>Article</title>
<path fill="none" stroke="black" d="M320.816,-226C320.816,-226 540.816,-226 540.816,-226 546.816,-226 552.816,-232 552.816,-238 552.816,-238 552.816,-350 552.816,-350 552.816,-356 546.816,-362 540.816,-362 540.816,-362 320.816,-362 320.816,-362 314.816,-362 308.816,-356 308.816,-350 308.816,-350 308.816,-238 308.816,-238 308.816,-232 314.816,-226 320.816,-226"/>
<text text-anchor="middle" x="430.816" y="-346.8" font-family="Times,serif" font-size="14.00">Article</text>
<polyline fill="none" stroke="black" points="308.816,-339 552.816,-339 "/>
<text text-anchor="start" x="316.816" y="-323.8" font-family="Times,serif" font-size="14.00">id :integer</text>
<text text-anchor="start" x="316.816" y="-308.8" font-family="Times,serif" font-size="14.00">title :character varying</text>
<text text-anchor="start" x="316.816" y="-293.8" font-family="Times,serif" font-size="14.00">text :text</text>
<text text-anchor="start" x="316.816" y="-278.8" font-family="Times,serif" font-size="14.00">user_id :integer</text>
<text text-anchor="start" x="316.816" y="-263.8" font-family="Times,serif" font-size="14.00">created_at :timestamp without time zone</text>
<text text-anchor="start" x="316.816" y="-248.8" font-family="Times,serif" font-size="14.00">updated_at :timestamp without time zone</text>
<text text-anchor="start" x="316.816" y="-233.8" font-family="Times,serif" font-size="14.00">photo :character varying</text>
</g>
<!-- ApplicationRecord&#45;&gt;Article -->
<g id="edge3" class="edge"><title>ApplicationRecord&#45;&gt;Article</title>
<path fill="none" stroke="black" d="M465.466,-960.781C447.99,-947.564 425.828,-927.171 415.816,-903 339.851,-719.605 383.549,-477.673 412.123,-362.086"/>
</g>
<!-- Comment -->
<g id="node5" class="node"><title>Comment</title>
<path fill="none" stroke="black" d="M320.816,-0.5C320.816,-0.5 540.816,-0.5 540.816,-0.5 546.816,-0.5 552.816,-6.5 552.816,-12.5 552.816,-12.5 552.816,-109.5 552.816,-109.5 552.816,-115.5 546.816,-121.5 540.816,-121.5 540.816,-121.5 320.816,-121.5 320.816,-121.5 314.816,-121.5 308.816,-115.5 308.816,-109.5 308.816,-109.5 308.816,-12.5 308.816,-12.5 308.816,-6.5 314.816,-0.5 320.816,-0.5"/>
<text text-anchor="middle" x="430.816" y="-106.3" font-family="Times,serif" font-size="14.00">Comment</text>
<polyline fill="none" stroke="black" points="308.816,-98.5 552.816,-98.5 "/>
<text text-anchor="start" x="316.816" y="-83.3" font-family="Times,serif" font-size="14.00">id :integer</text>
<text text-anchor="start" x="316.816" y="-68.3" font-family="Times,serif" font-size="14.00">body :text</text>
<text text-anchor="start" x="316.816" y="-53.3" font-family="Times,serif" font-size="14.00">user_id :integer</text>
<text text-anchor="start" x="316.816" y="-38.3" font-family="Times,serif" font-size="14.00">article_id :integer</text>
<text text-anchor="start" x="316.816" y="-23.3" font-family="Times,serif" font-size="14.00">created_at :timestamp without time zone</text>
<text text-anchor="start" x="316.816" y="-8.3" font-family="Times,serif" font-size="14.00">updated_at :timestamp without time zone</text>
</g>
<!-- ApplicationRecord&#45;&gt;Comment -->
<g id="edge4" class="edge"><title>ApplicationRecord&#45;&gt;Comment</title>
<path fill="none" stroke="black" d="M459.471,-961.373C443.314,-953.627 422.888,-944.728 403.816,-939 311.864,-911.385 263.457,-965.778 190.816,-903 23.6465,-758.529 72.2359,-648.249 37.8157,-430 18.983,-310.587 -36.8376,-253.084 37.8157,-158 71.1586,-115.532 206.207,-89.4478 308.769,-75.386"/>
</g>
<!-- Message -->
<g id="node6" class="node"><title>Message</title>
<path fill="none" stroke="black" d="M658.816,-0.5C658.816,-0.5 878.816,-0.5 878.816,-0.5 884.816,-0.5 890.816,-6.5 890.816,-12.5 890.816,-12.5 890.816,-109.5 890.816,-109.5 890.816,-115.5 884.816,-121.5 878.816,-121.5 878.816,-121.5 658.816,-121.5 658.816,-121.5 652.816,-121.5 646.816,-115.5 646.816,-109.5 646.816,-109.5 646.816,-12.5 646.816,-12.5 646.816,-6.5 652.816,-0.5 658.816,-0.5"/>
<text text-anchor="middle" x="768.816" y="-106.3" font-family="Times,serif" font-size="14.00">Message</text>
<polyline fill="none" stroke="black" points="646.816,-98.5 890.816,-98.5 "/>
<text text-anchor="start" x="654.816" y="-83.3" font-family="Times,serif" font-size="14.00">id :integer</text>
<text text-anchor="start" x="654.816" y="-68.3" font-family="Times,serif" font-size="14.00">body :text</text>
<text text-anchor="start" x="654.816" y="-53.3" font-family="Times,serif" font-size="14.00">user_id :integer</text>
<text text-anchor="start" x="654.816" y="-38.3" font-family="Times,serif" font-size="14.00">chat_room_id :integer</text>
<text text-anchor="start" x="654.816" y="-23.3" font-family="Times,serif" font-size="14.00">created_at :timestamp without time zone</text>
<text text-anchor="start" x="654.816" y="-8.3" font-family="Times,serif" font-size="14.00">updated_at :timestamp without time zone</text>
</g>
<!-- ApplicationRecord&#45;&gt;Message -->
<g id="edge5" class="edge"><title>ApplicationRecord&#45;&gt;Message</title>
<path fill="none" stroke="black" d="M557.896,-969.33C638.955,-958.791 767.577,-937.158 800.816,-903 917.289,-783.306 975.332,-306.963 899.816,-158 892.931,-144.419 883.122,-132.297 871.929,-121.621"/>
</g>
<!-- ChatRoom -->
<g id="node7" class="node"><title>ChatRoom</title>
<path fill="none" stroke="black" d="M658.816,-241C658.816,-241 878.816,-241 878.816,-241 884.816,-241 890.816,-247 890.816,-253 890.816,-253 890.816,-335 890.816,-335 890.816,-341 884.816,-347 878.816,-347 878.816,-347 658.816,-347 658.816,-347 652.816,-347 646.816,-341 646.816,-335 646.816,-335 646.816,-253 646.816,-253 646.816,-247 652.816,-241 658.816,-241"/>
<text text-anchor="middle" x="768.816" y="-331.8" font-family="Times,serif" font-size="14.00">ChatRoom</text>
<polyline fill="none" stroke="black" points="646.816,-324 890.816,-324 "/>
<text text-anchor="start" x="654.816" y="-308.8" font-family="Times,serif" font-size="14.00">id :integer</text>
<text text-anchor="start" x="654.816" y="-293.8" font-family="Times,serif" font-size="14.00">title :character varying</text>
<text text-anchor="start" x="654.816" y="-278.8" font-family="Times,serif" font-size="14.00">user_id :integer</text>
<text text-anchor="start" x="654.816" y="-263.8" font-family="Times,serif" font-size="14.00">created_at :timestamp without time zone</text>
<text text-anchor="start" x="654.816" y="-248.8" font-family="Times,serif" font-size="14.00">updated_at :timestamp without time zone</text>
</g>
<!-- ApplicationRecord&#45;&gt;ChatRoom -->
<g id="edge7" class="edge"><title>ApplicationRecord&#45;&gt;ChatRoom</title>
<path fill="none" stroke="black" d="M553,-967.506C621.372,-955.813 723.868,-933.666 747.816,-903 877.179,-737.346 818.112,-461.84 785.396,-347.366"/>
</g>
<!-- User -->
<g id="node8" class="node"><title>User</title>
<path fill="none" stroke="black" d="M437.316,-466.5C437.316,-466.5 726.316,-466.5 726.316,-466.5 732.316,-466.5 738.316,-472.5 738.316,-478.5 738.316,-478.5 738.316,-890.5 738.316,-890.5 738.316,-896.5 732.316,-902.5 726.316,-902.5 726.316,-902.5 437.316,-902.5 437.316,-902.5 431.316,-902.5 425.316,-896.5 425.316,-890.5 425.316,-890.5 425.316,-478.5 425.316,-478.5 425.316,-472.5 431.316,-466.5 437.316,-466.5"/>
<text text-anchor="middle" x="581.816" y="-887.3" font-family="Times,serif" font-size="14.00">User</text>
<polyline fill="none" stroke="black" points="425.316,-879.5 738.316,-879.5 "/>
<text text-anchor="start" x="433.316" y="-864.3" font-family="Times,serif" font-size="14.00">id :integer</text>
<text text-anchor="start" x="433.316" y="-849.3" font-family="Times,serif" font-size="14.00">email :character varying</text>
<text text-anchor="start" x="433.316" y="-834.3" font-family="Times,serif" font-size="14.00">encrypted_password :character varying</text>
<text text-anchor="start" x="433.316" y="-819.3" font-family="Times,serif" font-size="14.00">reset_password_token :character varying</text>
<text text-anchor="start" x="433.316" y="-804.3" font-family="Times,serif" font-size="14.00">reset_password_sent_at :timestamp without time zone</text>
<text text-anchor="start" x="433.316" y="-789.3" font-family="Times,serif" font-size="14.00">remember_created_at :timestamp without time zone</text>
<text text-anchor="start" x="433.316" y="-774.3" font-family="Times,serif" font-size="14.00">sign_in_count :integer</text>
<text text-anchor="start" x="433.316" y="-759.3" font-family="Times,serif" font-size="14.00">current_sign_in_at :timestamp without time zone</text>
<text text-anchor="start" x="433.316" y="-744.3" font-family="Times,serif" font-size="14.00">last_sign_in_at :timestamp without time zone</text>
<text text-anchor="start" x="433.316" y="-729.3" font-family="Times,serif" font-size="14.00">current_sign_in_ip :inet</text>
<text text-anchor="start" x="433.316" y="-714.3" font-family="Times,serif" font-size="14.00">last_sign_in_ip :inet</text>
<text text-anchor="start" x="433.316" y="-699.3" font-family="Times,serif" font-size="14.00">created_at :timestamp without time zone</text>
<text text-anchor="start" x="433.316" y="-684.3" font-family="Times,serif" font-size="14.00">updated_at :timestamp without time zone</text>
<text text-anchor="start" x="433.316" y="-669.3" font-family="Times,serif" font-size="14.00">doctor :boolean</text>
<text text-anchor="start" x="433.316" y="-654.3" font-family="Times,serif" font-size="14.00">avatar :character varying</text>
<text text-anchor="start" x="433.316" y="-639.3" font-family="Times,serif" font-size="14.00">firstname :character varying</text>
<text text-anchor="start" x="433.316" y="-624.3" font-family="Times,serif" font-size="14.00">lastname :character varying</text>
<text text-anchor="start" x="433.316" y="-609.3" font-family="Times,serif" font-size="14.00">birthday :date</text>
<text text-anchor="start" x="433.316" y="-594.3" font-family="Times,serif" font-size="14.00">phone :character varying</text>
<text text-anchor="start" x="433.316" y="-579.3" font-family="Times,serif" font-size="14.00">sex :character varying</text>
<text text-anchor="start" x="433.316" y="-564.3" font-family="Times,serif" font-size="14.00">confirmation_token :character varying</text>
<text text-anchor="start" x="433.316" y="-549.3" font-family="Times,serif" font-size="14.00">confirmed_at :timestamp without time zone</text>
<text text-anchor="start" x="433.316" y="-534.3" font-family="Times,serif" font-size="14.00">confirmation_sent_at :timestamp without time zone</text>
<text text-anchor="start" x="433.316" y="-519.3" font-family="Times,serif" font-size="14.00">unconfirmed_email :character varying</text>
<text text-anchor="start" x="433.316" y="-504.3" font-family="Times,serif" font-size="14.00">failed_attempts :integer</text>
<text text-anchor="start" x="433.316" y="-489.3" font-family="Times,serif" font-size="14.00">unlock_token :character varying</text>
<text text-anchor="start" x="433.316" y="-474.3" font-family="Times,serif" font-size="14.00">locked_at :timestamp without time zone</text>
</g>
<!-- ApplicationRecord&#45;&gt;User -->
<g id="edge13" class="edge"><title>ApplicationRecord&#45;&gt;User</title>
<path fill="none" stroke="black" d="M495.295,-959.638C499.531,-946.217 505.912,-925.998 513.328,-902.502"/>
</g>
<!-- Article&#45;&gt;Comment -->
<g id="edge2" class="edge"><title>Article&#45;&gt;Comment</title>
<path fill="none" stroke="#bc6b55" d="M430.816,-217.656C430.816,-190.096 430.816,-159.052 430.816,-131.98"/>
<ellipse fill="none" stroke="#bc6b55" cx="430.816" cy="-221.875" rx="4" ry="4"/>
<polygon fill="#bc6b55" stroke="#bc6b55" points="430.816,-131.814 435.316,-121.814 430.816,-126.814 430.816,-121.814 430.816,-121.814 430.816,-121.814 430.816,-126.814 426.316,-121.814 430.816,-131.814 430.816,-131.814"/>
</g>
<!-- ChatRoom&#45;&gt;Message -->
<g id="edge6" class="edge"><title>ChatRoom&#45;&gt;Message</title>
<path fill="none" stroke="#479698" d="M768.816,-232.809C768.816,-201.912 768.816,-164.104 768.816,-131.92"/>
<ellipse fill="none" stroke="#479698" cx="768.816" cy="-236.871" rx="4" ry="4"/>
<polygon fill="#479698" stroke="#479698" points="768.816,-131.684 773.316,-121.684 768.816,-126.684 768.816,-121.684 768.816,-121.684 768.816,-121.684 768.816,-126.684 764.316,-121.684 768.816,-131.684 768.816,-131.684"/>
</g>
<!-- User&#45;&gt;Card -->
<g id="edge12" class="edge"><title>User&#45;&gt;Card</title>
<path fill="none" stroke="#fe33db" d="M418.982,-540.546C379.497,-504.948 337.746,-466.51 299.816,-430 298.805,-429.027 297.791,-428.048 296.774,-427.065"/>
<ellipse fill="none" stroke="#fe33db" cx="422.326" cy="-543.558" rx="4.00002" ry="4.00002"/>
<ellipse fill="#fe33db" stroke="#fe33db" cx="293.795" cy="-424.17" rx="4.00002" ry="4.00002"/>
</g>
<!-- User&#45;&gt;Article -->
<g id="edge10" class="edge"><title>User&#45;&gt;Article</title>
<path fill="none" stroke="#105550" d="M494.453,-458.728C482.334,-427.55 470.635,-397.448 460.644,-371.744"/>
<ellipse fill="none" stroke="#105550" cx="495.927" cy="-462.522" rx="4.00001" ry="4.00001"/>
<polygon fill="#105550" stroke="#105550" points="460.524,-371.435 461.096,-360.484 458.713,-366.775 456.901,-362.115 456.901,-362.115 456.901,-362.115 458.713,-366.775 452.707,-363.745 460.524,-371.435 460.524,-371.435"/>
</g>
<!-- User&#45;&gt;Comment -->
<g id="edge11" class="edge"><title>User&#45;&gt;Comment</title>
<path fill="none" stroke="#e758b5" d="M592.389,-458.256C594.189,-340.096 589.13,-209.431 561.816,-158 556.185,-147.397 548.803,-137.666 540.409,-128.809"/>
<ellipse fill="none" stroke="#e758b5" cx="592.321" cy="-462.381" rx="4" ry="4"/>
<polygon fill="#e758b5" stroke="#e758b5" points="540.226,-128.627 536.309,-118.384 536.681,-125.101 533.135,-121.575 533.135,-121.575 533.135,-121.575 536.681,-125.101 529.962,-124.766 540.226,-128.627 540.226,-128.627"/>
</g>
<!-- User&#45;&gt;Message -->
<g id="edge9" class="edge"><title>User&#45;&gt;Message</title>
<path fill="none" stroke="#c5a752" d="M597.329,-458.271C607.79,-328.037 622.447,-184.701 637.816,-158 643.92,-147.395 651.719,-137.626 660.464,-128.715"/>
<ellipse fill="none" stroke="#c5a752" cx="596.995" cy="-462.446" rx="4" ry="4"/>
<polygon fill="#c5a752" stroke="#c5a752" points="660.475,-128.704 670.793,-124.989 664.07,-125.229 667.665,-121.754 667.665,-121.754 667.665,-121.754 664.07,-125.229 664.537,-118.518 660.475,-128.704 660.475,-128.704"/>
</g>
<!-- User&#45;&gt;ChatRoom -->
<g id="edge8" class="edge"><title>User&#45;&gt;ChatRoom</title>
<path fill="none" stroke="#8623f5" d="M689.888,-458.975C708.05,-421.243 725.46,-385.073 739.285,-356.35"/>
<ellipse fill="none" stroke="#8623f5" cx="688.121" cy="-462.646" rx="4.00002" ry="4.00002"/>
<polygon fill="#8623f5" stroke="#8623f5" points="739.307,-356.304 747.699,-349.246 741.476,-351.799 743.645,-347.294 743.645,-347.294 743.645,-347.294 741.476,-351.799 739.59,-345.342 739.307,-356.304 739.307,-356.304"/>
</g>
</g>
</svg>
