<?xml version="1.0" encoding="UTF-8" standalone="no"?>
<!DOCTYPE svg PUBLIC "-//W3C//DTD SVG 1.1//EN"
 "http://www.w3.org/Graphics/SVG/1.1/DTD/svg11.dtd">
<!-- Generated by graphviz version 2.38.0 (20140413.2041)
 -->
<!-- Title: models_diagram Pages: 1 -->
<svg width="526pt" height="302pt"
 viewBox="0.00 0.00 526.27 302.00" xmlns="http://www.w3.org/2000/svg" xmlns:xlink="http://www.w3.org/1999/xlink">
<g id="graph0" class="graph" transform="scale(1 1) rotate(0) translate(4 298)">
<title>models_diagram</title>
<polygon fill="none" stroke="none" points="-4,4 -4,-298 522.271,-298 522.271,4 -4,4"/>
<!-- _diagram_info -->
<g id="node1" class="node"><title>_diagram_info</title>
<text text-anchor="start" x="8" y="-279.6" font-family="Times,serif" font-size="13.00">Models diagram</text>
<text text-anchor="start" x="8" y="-265.6" font-family="Times,serif" font-size="13.00">Date: May 29 2017 &#45; 20:36</text>
<text text-anchor="start" x="8" y="-251.6" font-family="Times,serif" font-size="13.00">Migration version: 20170529135722</text>
<text text-anchor="start" x="8" y="-237.6" font-family="Times,serif" font-size="13.00">Generated by RailRoady 1.5.2</text>
<text text-anchor="start" x="8" y="-223.6" font-family="Times,serif" font-size="13.00">http://railroady.prestonlee.com</text>
</g>
<!-- ApplicationRecord -->
<g id="node2" class="node"><title>ApplicationRecord</title>
<ellipse fill="none" stroke="black" cx="309" cy="-255" rx="77.1866" ry="18"/>
<text text-anchor="middle" x="309" y="-251.3" font-family="Times,serif" font-size="14.00">ApplicationRecord</text>
</g>
<!-- Card -->
<g id="node3" class="node"><title>Card</title>
<ellipse fill="none" stroke="black" cx="196" cy="-90" rx="27.8951" ry="18"/>
<text text-anchor="middle" x="196" y="-86.3" font-family="Times,serif" font-size="14.00">Card</text>
</g>
<!-- ApplicationRecord&#45;&gt;Card -->
<g id="edge1" class="edge"><title>ApplicationRecord&#45;&gt;Card</title>
<path fill="none" stroke="black" d="M297.333,-237.17C275.454,-205.61 228.542,-137.941 207.102,-107.014"/>
</g>
<!-- Article -->
<g id="node4" class="node"><title>Article</title>
<ellipse fill="none" stroke="black" cx="277" cy="-90" rx="35.194" ry="18"/>
<text text-anchor="middle" x="277" y="-86.3" font-family="Times,serif" font-size="14.00">Article</text>
</g>
<!-- ApplicationRecord&#45;&gt;Article -->
<g id="edge3" class="edge"><title>ApplicationRecord&#45;&gt;Article</title>
<path fill="none" stroke="black" d="M305.636,-236.864C299.506,-205.64 286.583,-139.812 280.415,-108.397"/>
</g>
<!-- Comment -->
<g id="node5" class="node"><title>Comment</title>
<ellipse fill="none" stroke="black" cx="277" cy="-18" rx="46.2923" ry="18"/>
<text text-anchor="middle" x="277" y="-14.3" font-family="Times,serif" font-size="14.00">Comment</text>
</g>
<!-- ApplicationRecord&#45;&gt;Comment -->
<g id="edge4" class="edge"><title>ApplicationRecord&#45;&gt;Comment</title>
<path fill="none" stroke="black" d="M282.358,-238.021C246.377,-214.685 183.89,-167.509 159,-108 152.826,-93.2391 150.308,-85.433 159,-72 175.776,-46.075 208.572,-32.7093 235.34,-25.8905"/>
</g>
<!-- Message -->
<g id="node6" class="node"><title>Message</title>
<ellipse fill="none" stroke="black" cx="455" cy="-18" rx="42.4939" ry="18"/>
<text text-anchor="middle" x="455" y="-14.3" font-family="Times,serif" font-size="14.00">Message</text>
</g>
<!-- ApplicationRecord&#45;&gt;Message -->
<g id="edge5" class="edge"><title>ApplicationRecord&#45;&gt;Message</title>
<path fill="none" stroke="black" d="M347.719,-239.403C396.563,-218.625 478.355,-175.398 513,-108 520.315,-93.7699 519.454,-86.6405 513,-72 505.847,-55.7742 491.002,-42.3604 478.122,-33.0869"/>
</g>
<!-- ChatRoom -->
<g id="node7" class="node"><title>ChatRoom</title>
<ellipse fill="none" stroke="black" cx="455" cy="-90" rx="49.2915" ry="18"/>
<text text-anchor="middle" x="455" y="-86.3" font-family="Times,serif" font-size="14.00">ChatRoom</text>
</g>
<!-- ApplicationRecord&#45;&gt;ChatRoom -->
<g id="edge7" class="edge"><title>ApplicationRecord&#45;&gt;ChatRoom</title>
<path fill="none" stroke="black" d="M324.075,-237.17C352.197,-205.773 412.331,-138.637 440.225,-107.496"/>
</g>
<!-- User -->
<g id="node8" class="node"><title>User</title>
<ellipse fill="none" stroke="black" cx="338" cy="-162" rx="27.0966" ry="18"/>
<text text-anchor="middle" x="338" y="-158.3" font-family="Times,serif" font-size="14.00">User</text>
</g>
<!-- ApplicationRecord&#45;&gt;User -->
<g id="edge13" class="edge"><title>ApplicationRecord&#45;&gt;User</title>
<path fill="none" stroke="black" d="M314.455,-236.884C319.672,-220.511 327.491,-195.975 332.668,-179.732"/>
</g>
<!-- Article&#45;&gt;Comment -->
<g id="edge2" class="edge"><title>Article&#45;&gt;Comment</title>
<path fill="none" stroke="#4e4e75" d="M277,-63.6398C277,-58.0629 277,-52.1319 277,-46.4761"/>
<ellipse fill="none" stroke="#4e4e75" cx="277" cy="-67.6966" rx="4" ry="4"/>
<polygon fill="#4e4e75" stroke="#4e4e75" points="277,-46.1043 281.5,-36.1043 277,-41.1043 277,-36.1043 277,-36.1043 277,-36.1043 277,-41.1043 272.5,-36.1044 277,-46.1043 277,-46.1043"/>
</g>
<!-- ChatRoom&#45;&gt;Message -->
<g id="edge6" class="edge"><title>ChatRoom&#45;&gt;Message</title>
<path fill="none" stroke="#f8f33d" d="M455,-63.6398C455,-58.0629 455,-52.1319 455,-46.4761"/>
<ellipse fill="none" stroke="#f8f33d" cx="455" cy="-67.6966" rx="4" ry="4"/>
<polygon fill="#f8f33d" stroke="#f8f33d" points="455,-46.1043 459.5,-36.1043 455,-41.1043 455,-36.1043 455,-36.1043 455,-36.1043 455,-41.1043 450.5,-36.1044 455,-46.1043 455,-46.1043"/>
</g>
<!-- User&#45;&gt;Card -->
<g id="edge12" class="edge"><title>User&#45;&gt;Card</title>
<path fill="none" stroke="#29a702" d="M309.488,-146.945C285,-134.873 249.846,-117.544 225.17,-105.38"/>
<ellipse fill="none" stroke="#29a702" cx="313.153" cy="-148.752" rx="4.00002" ry="4.00002"/>
<ellipse fill="#29a702" stroke="#29a702" cx="221.459" cy="-103.55" rx="4.00002" ry="4.00002"/>
</g>
<!-- User&#45;&gt;Article -->
<g id="edge10" class="edge"><title>User&#45;&gt;Article</title>
<path fill="none" stroke="#6904f1" d="M319.265,-139.501C312.331,-131.543 304.438,-122.486 297.366,-114.37"/>
<ellipse fill="none" stroke="#6904f1" cx="322.136" cy="-142.795" rx="4.00002" ry="4.00002"/>
<polygon fill="#6904f1" stroke="#6904f1" points="297.202,-114.183 294.025,-103.688 293.918,-110.414 290.633,-106.644 290.633,-106.644 290.633,-106.644 293.918,-110.414 287.24,-109.6 297.202,-114.183 297.202,-114.183"/>
</g>
<!-- User&#45;&gt;Comment -->
<g id="edge11" class="edge"><title>User&#45;&gt;Comment</title>
<path fill="none" stroke="#8a068b" d="M336.517,-135.376C334.656,-117 330.46,-92.0512 321,-72 315.999,-61.4005 308.379,-51.1493 300.878,-42.5331"/>
<ellipse fill="none" stroke="#8a068b" cx="336.907" cy="-139.834" rx="4" ry="4"/>
<polygon fill="#8a068b" stroke="#8a068b" points="300.847,-42.499 297.424,-32.0813 297.474,-38.8079 294.102,-35.1168 294.102,-35.1168 294.102,-35.1168 297.474,-38.8079 290.78,-38.1524 300.847,-42.499 300.847,-42.499"/>
</g>
<!-- User&#45;&gt;Message -->
<g id="edge9" class="edge"><title>User&#45;&gt;Message</title>
<path fill="none" stroke="#7ae9ed" d="M351.245,-137.758C362.358,-119.13 379.228,-92.7639 397,-72 406.471,-60.9344 418.132,-49.8788 428.509,-40.7502"/>
<ellipse fill="none" stroke="#7ae9ed" cx="349.165" cy="-141.29" rx="4.00002" ry="4.00002"/>
<polygon fill="#7ae9ed" stroke="#7ae9ed" points="428.561,-40.7054 439.073,-37.5856 432.348,-37.4411 436.135,-34.1769 436.135,-34.1769 436.135,-34.1769 432.348,-37.4411 433.198,-30.7682 428.561,-40.7054 428.561,-40.7054"/>
</g>
<!-- User&#45;&gt;ChatRoom -->
<g id="edge8" class="edge"><title>User&#45;&gt;ChatRoom</title>
<path fill="none" stroke="#eadf08" d="M364.531,-145.127C381.388,-135.041 403.358,-121.897 421.426,-111.087"/>
<ellipse fill="none" stroke="#eadf08" cx="361.016" cy="-147.23" rx="4.00002" ry="4.00002"/>
<polygon fill="#eadf08" stroke="#eadf08" points="421.889,-110.81 432.781,-109.537 426.18,-108.243 430.471,-105.676 430.471,-105.676 430.471,-105.676 426.18,-108.243 428.16,-101.814 421.889,-110.81 421.889,-110.81"/>
</g>
</g>
</svg>
