<?xml version="1.0" encoding="UTF-8" standalone="no"?>
<!DOCTYPE svg PUBLIC "-//W3C//DTD SVG 1.1//EN"
 "http://www.w3.org/Graphics/SVG/1.1/DTD/svg11.dtd">
<!-- Generated by graphviz version 2.38.0 (20140413.2041)
 -->
<!-- Title: models_diagram Pages: 1 -->
<svg width="879pt" height="911pt"
 viewBox="0.00 0.00 879.00 911.00" xmlns="http://www.w3.org/2000/svg" xmlns:xlink="http://www.w3.org/1999/xlink">
<g id="graph0" class="graph" transform="scale(1 1) rotate(0) translate(4 907)">
<title>models_diagram</title>
<polygon fill="none" stroke="none" points="-4,4 -4,-907 875,-907 875,4 -4,4"/>
<!-- _diagram_info -->
<g id="node1" class="node"><title>_diagram_info</title>
<text text-anchor="start" x="8" y="-709.1" font-family="Times,serif" font-size="13.00">Models diagram</text>
<text text-anchor="start" x="8" y="-695.1" font-family="Times,serif" font-size="13.00">Date: May 29 2017 &#45; 20:28</text>
<text text-anchor="start" x="8" y="-681.1" font-family="Times,serif" font-size="13.00">Migration version: 20170529135722</text>
<text text-anchor="start" x="8" y="-667.1" font-family="Times,serif" font-size="13.00">Generated by RailRoady 1.5.2</text>
<text text-anchor="start" x="8" y="-653.1" font-family="Times,serif" font-size="13.00">http://railroady.prestonlee.com</text>
</g>
<!-- ApplicationRecord -->
<g id="node2" class="node"><title>ApplicationRecord</title>
<ellipse fill="none" stroke="black" cx="309" cy="-684.5" rx="77.1866" ry="18"/>
<text text-anchor="middle" x="309" y="-680.8" font-family="Times,serif" font-size="14.00">ApplicationRecord</text>
</g>
<!-- Card -->
<g id="node3" class="node"><title>Card</title>
<path fill="none" stroke="black" d="M39,-158.5C39,-158.5 259,-158.5 259,-158.5 265,-158.5 271,-164.5 271,-170.5 271,-170.5 271,-417.5 271,-417.5 271,-423.5 265,-429.5 259,-429.5 259,-429.5 39,-429.5 39,-429.5 33,-429.5 27,-423.5 27,-417.5 27,-417.5 27,-170.5 27,-170.5 27,-164.5 33,-158.5 39,-158.5"/>
<text text-anchor="middle" x="149" y="-414.3" font-family="Times,serif" font-size="14.00">Card</text>
<polyline fill="none" stroke="black" points="27,-406.5 271,-406.5 "/>
<text text-anchor="start" x="35" y="-391.3" font-family="Times,serif" font-size="14.00">id :integer</text>
<text text-anchor="start" x="35" y="-376.3" font-family="Times,serif" font-size="14.00">user_id :integer</text>
<text text-anchor="start" x="35" y="-361.3" font-family="Times,serif" font-size="14.00">first_name :character varying</text>
<text text-anchor="start" x="35" y="-346.3" font-family="Times,serif" font-size="14.00">last_name :character varying</text>
<text text-anchor="start" x="35" y="-331.3" font-family="Times,serif" font-size="14.00">surname :character varying</text>
<text text-anchor="start" x="35" y="-316.3" font-family="Times,serif" font-size="14.00">gender :integer</text>
<text text-anchor="start" x="35" y="-301.3" font-family="Times,serif" font-size="14.00">dispancery :boolean</text>
<text text-anchor="start" x="35" y="-286.3" font-family="Times,serif" font-size="14.00">home_phone :character varying</text>
<text text-anchor="start" x="35" y="-271.3" font-family="Times,serif" font-size="14.00">work_phone :character varying</text>
<text text-anchor="start" x="35" y="-256.3" font-family="Times,serif" font-size="14.00">location :character varying</text>
<text text-anchor="start" x="35" y="-241.3" font-family="Times,serif" font-size="14.00">job_info :character varying</text>
<text text-anchor="start" x="35" y="-226.3" font-family="Times,serif" font-size="14.00">contingent :character varying</text>
<text text-anchor="start" x="35" y="-211.3" font-family="Times,serif" font-size="14.00">preferential_categories :character varying</text>
<text text-anchor="start" x="35" y="-196.3" font-family="Times,serif" font-size="14.00">preferential_number :character varying</text>
<text text-anchor="start" x="35" y="-181.3" font-family="Times,serif" font-size="14.00">created_at :timestamp without time zone</text>
<text text-anchor="start" x="35" y="-166.3" font-family="Times,serif" font-size="14.00">updated_at :timestamp without time zone</text>
</g>
<!-- Article -->
<g id="node4" class="node"><title>Article</title>
<path fill="none" stroke="black" d="M301,-226C301,-226 521,-226 521,-226 527,-226 533,-232 533,-238 533,-238 533,-350 533,-350 533,-356 527,-362 521,-362 521,-362 301,-362 301,-362 295,-362 289,-356 289,-350 289,-350 289,-238 289,-238 289,-232 295,-226 301,-226"/>
<text text-anchor="middle" x="411" y="-346.8" font-family="Times,serif" font-size="14.00">Article</text>
<polyline fill="none" stroke="black" points="289,-339 533,-339 "/>
<text text-anchor="start" x="297" y="-323.8" font-family="Times,serif" font-size="14.00">id :integer</text>
<text text-anchor="start" x="297" y="-308.8" font-family="Times,serif" font-size="14.00">title :character varying</text>
<text text-anchor="start" x="297" y="-293.8" font-family="Times,serif" font-size="14.00">text :text</text>
<text text-anchor="start" x="297" y="-278.8" font-family="Times,serif" font-size="14.00">user_id :integer</text>
<text text-anchor="start" x="297" y="-263.8" font-family="Times,serif" font-size="14.00">created_at :timestamp without time zone</text>
<text text-anchor="start" x="297" y="-248.8" font-family="Times,serif" font-size="14.00">updated_at :timestamp without time zone</text>
<text text-anchor="start" x="297" y="-233.8" font-family="Times,serif" font-size="14.00">photo :character varying</text>
</g>
<!-- Comment -->
<g id="node5" class="node"><title>Comment</title>
<path fill="none" stroke="black" d="M320,-0.5C320,-0.5 540,-0.5 540,-0.5 546,-0.5 552,-6.5 552,-12.5 552,-12.5 552,-109.5 552,-109.5 552,-115.5 546,-121.5 540,-121.5 540,-121.5 320,-121.5 320,-121.5 314,-121.5 308,-115.5 308,-109.5 308,-109.5 308,-12.5 308,-12.5 308,-6.5 314,-0.5 320,-0.5"/>
<text text-anchor="middle" x="430" y="-106.3" font-family="Times,serif" font-size="14.00">Comment</text>
<polyline fill="none" stroke="black" points="308,-98.5 552,-98.5 "/>
<text text-anchor="start" x="316" y="-83.3" font-family="Times,serif" font-size="14.00">id :integer</text>
<text text-anchor="start" x="316" y="-68.3" font-family="Times,serif" font-size="14.00">body :text</text>
<text text-anchor="start" x="316" y="-53.3" font-family="Times,serif" font-size="14.00">user_id :integer</text>
<text text-anchor="start" x="316" y="-38.3" font-family="Times,serif" font-size="14.00">article_id :integer</text>
<text text-anchor="start" x="316" y="-23.3" font-family="Times,serif" font-size="14.00">created_at :timestamp without time zone</text>
<text text-anchor="start" x="316" y="-8.3" font-family="Times,serif" font-size="14.00">updated_at :timestamp without time zone</text>
</g>
<!-- Article&#45;&gt;Comment -->
<g id="edge1" class="edge"><title>Article&#45;&gt;Comment</title>
<path fill="none" stroke="#75e340" d="M417.197,-217.656C419.464,-190.096 422.017,-159.052 424.244,-131.98"/>
<ellipse fill="none" stroke="#75e340" cx="416.849" cy="-221.888" rx="4" ry="4"/>
<polygon fill="#75e340" stroke="#75e340" points="424.26,-131.78 429.565,-122.183 424.67,-126.797 425.08,-121.814 425.08,-121.814 425.08,-121.814 424.67,-126.797 420.595,-121.445 424.26,-131.78 424.26,-131.78"/>
</g>
<!-- Message -->
<g id="node6" class="node"><title>Message</title>
<path fill="none" stroke="black" d="M620,-0.5C620,-0.5 840,-0.5 840,-0.5 846,-0.5 852,-6.5 852,-12.5 852,-12.5 852,-109.5 852,-109.5 852,-115.5 846,-121.5 840,-121.5 840,-121.5 620,-121.5 620,-121.5 614,-121.5 608,-115.5 608,-109.5 608,-109.5 608,-12.5 608,-12.5 608,-6.5 614,-0.5 620,-0.5"/>
<text text-anchor="middle" x="730" y="-106.3" font-family="Times,serif" font-size="14.00">Message</text>
<polyline fill="none" stroke="black" points="608,-98.5 852,-98.5 "/>
<text text-anchor="start" x="616" y="-83.3" font-family="Times,serif" font-size="14.00">id :integer</text>
<text text-anchor="start" x="616" y="-68.3" font-family="Times,serif" font-size="14.00">body :text</text>
<text text-anchor="start" x="616" y="-53.3" font-family="Times,serif" font-size="14.00">user_id :integer</text>
<text text-anchor="start" x="616" y="-38.3" font-family="Times,serif" font-size="14.00">chat_room_id :integer</text>
<text text-anchor="start" x="616" y="-23.3" font-family="Times,serif" font-size="14.00">created_at :timestamp without time zone</text>
<text text-anchor="start" x="616" y="-8.3" font-family="Times,serif" font-size="14.00">updated_at :timestamp without time zone</text>
</g>
<!-- ChatRoom -->
<g id="node7" class="node"><title>ChatRoom</title>
<path fill="none" stroke="black" d="M639,-241C639,-241 859,-241 859,-241 865,-241 871,-247 871,-253 871,-253 871,-335 871,-335 871,-341 865,-347 859,-347 859,-347 639,-347 639,-347 633,-347 627,-341 627,-335 627,-335 627,-253 627,-253 627,-247 633,-241 639,-241"/>
<text text-anchor="middle" x="749" y="-331.8" font-family="Times,serif" font-size="14.00">ChatRoom</text>
<polyline fill="none" stroke="black" points="627,-324 871,-324 "/>
<text text-anchor="start" x="635" y="-308.8" font-family="Times,serif" font-size="14.00">id :integer</text>
<text text-anchor="start" x="635" y="-293.8" font-family="Times,serif" font-size="14.00">title :character varying</text>
<text text-anchor="start" x="635" y="-278.8" font-family="Times,serif" font-size="14.00">user_id :integer</text>
<text text-anchor="start" x="635" y="-263.8" font-family="Times,serif" font-size="14.00">created_at :timestamp without time zone</text>
<text text-anchor="start" x="635" y="-248.8" font-family="Times,serif" font-size="14.00">updated_at :timestamp without time zone</text>
</g>
<!-- ChatRoom&#45;&gt;Message -->
<g id="edge2" class="edge"><title>ChatRoom&#45;&gt;Message</title>
<path fill="none" stroke="#a81100" d="M744.049,-232.809C741.508,-201.912 738.398,-164.104 735.751,-131.92"/>
<ellipse fill="none" stroke="#a81100" cx="744.384" cy="-236.885" rx="4" ry="4"/>
<polygon fill="#a81100" stroke="#a81100" points="735.729,-131.651 739.394,-121.315 735.319,-126.667 734.909,-121.684 734.909,-121.684 734.909,-121.684 735.319,-126.667 730.424,-122.053 735.729,-131.651 735.729,-131.651"/>
</g>
<!-- User -->
<g id="node8" class="node"><title>User</title>
<path fill="none" stroke="black" d="M416.5,-466.5C416.5,-466.5 705.5,-466.5 705.5,-466.5 711.5,-466.5 717.5,-472.5 717.5,-478.5 717.5,-478.5 717.5,-890.5 717.5,-890.5 717.5,-896.5 711.5,-902.5 705.5,-902.5 705.5,-902.5 416.5,-902.5 416.5,-902.5 410.5,-902.5 404.5,-896.5 404.5,-890.5 404.5,-890.5 404.5,-478.5 404.5,-478.5 404.5,-472.5 410.5,-466.5 416.5,-466.5"/>
<text text-anchor="middle" x="561" y="-887.3" font-family="Times,serif" font-size="14.00">User</text>
<polyline fill="none" stroke="black" points="404.5,-879.5 717.5,-879.5 "/>
<text text-anchor="start" x="412.5" y="-864.3" font-family="Times,serif" font-size="14.00">id :integer</text>
<text text-anchor="start" x="412.5" y="-849.3" font-family="Times,serif" font-size="14.00">email :character varying</text>
<text text-anchor="start" x="412.5" y="-834.3" font-family="Times,serif" font-size="14.00">encrypted_password :character varying</text>
<text text-anchor="start" x="412.5" y="-819.3" font-family="Times,serif" font-size="14.00">reset_password_token :character varying</text>
<text text-anchor="start" x="412.5" y="-804.3" font-family="Times,serif" font-size="14.00">reset_password_sent_at :timestamp without time zone</text>
<text text-anchor="start" x="412.5" y="-789.3" font-family="Times,serif" font-size="14.00">remember_created_at :timestamp without time zone</text>
<text text-anchor="start" x="412.5" y="-774.3" font-family="Times,serif" font-size="14.00">sign_in_count :integer</text>
<text text-anchor="start" x="412.5" y="-759.3" font-family="Times,serif" font-size="14.00">current_sign_in_at :timestamp without time zone</text>
<text text-anchor="start" x="412.5" y="-744.3" font-family="Times,serif" font-size="14.00">last_sign_in_at :timestamp without time zone</text>
<text text-anchor="start" x="412.5" y="-729.3" font-family="Times,serif" font-size="14.00">current_sign_in_ip :inet</text>
<text text-anchor="start" x="412.5" y="-714.3" font-family="Times,serif" font-size="14.00">last_sign_in_ip :inet</text>
<text text-anchor="start" x="412.5" y="-699.3" font-family="Times,serif" font-size="14.00">created_at :timestamp without time zone</text>
<text text-anchor="start" x="412.5" y="-684.3" font-family="Times,serif" font-size="14.00">updated_at :timestamp without time zone</text>
<text text-anchor="start" x="412.5" y="-669.3" font-family="Times,serif" font-size="14.00">doctor :boolean</text>
<text text-anchor="start" x="412.5" y="-654.3" font-family="Times,serif" font-size="14.00">avatar :character varying</text>
<text text-anchor="start" x="412.5" y="-639.3" font-family="Times,serif" font-size="14.00">firstname :character varying</text>
<text text-anchor="start" x="412.5" y="-624.3" font-family="Times,serif" font-size="14.00">lastname :character varying</text>
<text text-anchor="start" x="412.5" y="-609.3" font-family="Times,serif" font-size="14.00">birthday :date</text>
<text text-anchor="start" x="412.5" y="-594.3" font-family="Times,serif" font-size="14.00">phone :character varying</text>
<text text-anchor="start" x="412.5" y="-579.3" font-family="Times,serif" font-size="14.00">sex :character varying</text>
<text text-anchor="start" x="412.5" y="-564.3" font-family="Times,serif" font-size="14.00">confirmation_token :character varying</text>
<text text-anchor="start" x="412.5" y="-549.3" font-family="Times,serif" font-size="14.00">confirmed_at :timestamp without time zone</text>
<text text-anchor="start" x="412.5" y="-534.3" font-family="Times,serif" font-size="14.00">confirmation_sent_at :timestamp without time zone</text>
<text text-anchor="start" x="412.5" y="-519.3" font-family="Times,serif" font-size="14.00">unconfirmed_email :character varying</text>
<text text-anchor="start" x="412.5" y="-504.3" font-family="Times,serif" font-size="14.00">failed_attempts :integer</text>
<text text-anchor="start" x="412.5" y="-489.3" font-family="Times,serif" font-size="14.00">unlock_token :character varying</text>
<text text-anchor="start" x="412.5" y="-474.3" font-family="Times,serif" font-size="14.00">locked_at :timestamp without time zone</text>
</g>
<!-- User&#45;&gt;Card -->
<g id="edge7" class="edge"><title>User&#45;&gt;Card</title>
<path fill="none" stroke="#f822d8" d="M397.618,-467.858C396.748,-467.233 395.875,-466.613 395,-466 351.137,-435.269 325.605,-458.081 280,-430 279.361,-429.607 278.723,-429.21 278.087,-428.809"/>
<ellipse fill="none" stroke="#f822d8" cx="401.025" cy="-470.382" rx="4.00002" ry="4.00002"/>
<ellipse fill="#f822d8" stroke="#f822d8" cx="274.65" cy="-426.564" rx="4.00002" ry="4.00002"/>
</g>
<!-- User&#45;&gt;Article -->
<g id="edge5" class="edge"><title>User&#45;&gt;Article</title>
<path fill="none" stroke="#b7ace2" d="M474.215,-458.728C462.178,-427.55 450.555,-397.448 440.631,-371.744"/>
<ellipse fill="none" stroke="#b7ace2" cx="475.679" cy="-462.518" rx="4.00001" ry="4.00001"/>
<polygon fill="#b7ace2" stroke="#b7ace2" points="440.515,-371.444 441.111,-360.494 438.714,-366.779 436.913,-362.115 436.913,-362.115 436.913,-362.115 438.714,-366.779 432.715,-363.736 440.515,-371.444 440.515,-371.444"/>
</g>
<!-- User&#45;&gt;Comment -->
<g id="edge6" class="edge"><title>User&#45;&gt;Comment</title>
<path fill="none" stroke="#e6edf7" d="M570.552,-458.351C572.069,-340.622 567.235,-210.354 542,-158 537.055,-147.74 530.448,-138.148 522.905,-129.301"/>
<ellipse fill="none" stroke="#e6edf7" cx="570.494" cy="-462.446" rx="4" ry="4"/>
<polygon fill="#e6edf7" stroke="#e6edf7" points="522.759,-129.14 519.393,-118.703 519.407,-125.43 516.055,-121.72 516.055,-121.72 516.055,-121.72 519.407,-125.43 512.716,-124.737 522.759,-129.14 522.759,-129.14"/>
</g>
<!-- User&#45;&gt;Message -->
<g id="edge4" class="edge"><title>User&#45;&gt;Message</title>
<path fill="none" stroke="#961e9b" d="M569.056,-458.18C576.487,-340.196 590.732,-209.731 618,-158 623.458,-147.646 630.537,-137.929 638.484,-128.952"/>
<ellipse fill="none" stroke="#961e9b" cx="568.802" cy="-462.3" rx="4" ry="4"/>
<polygon fill="#961e9b" stroke="#961e9b" points="638.529,-128.903 648.639,-124.655 641.938,-125.245 645.347,-121.587 645.347,-121.587 645.347,-121.587 641.938,-125.245 642.055,-118.519 638.529,-128.903 638.529,-128.903"/>
</g>
<!-- User&#45;&gt;ChatRoom -->
<g id="edge3" class="edge"><title>User&#45;&gt;ChatRoom</title>
<path fill="none" stroke="#47cf63" d="M669.651,-458.975C687.91,-421.243 705.413,-385.073 719.312,-356.35"/>
<ellipse fill="none" stroke="#47cf63" cx="667.872" cy="-462.649" rx="4.00002" ry="4.00002"/>
<polygon fill="#47cf63" stroke="#47cf63" points="719.338,-356.295 727.745,-349.254 721.516,-351.795 723.694,-347.294 723.694,-347.294 723.694,-347.294 721.516,-351.795 719.644,-345.334 719.338,-356.295 719.338,-356.295"/>
</g>
</g>
</svg>
