<?xml version="1.0" encoding="UTF-8" standalone="no"?>
<!DOCTYPE svg PUBLIC "-//W3C//DTD SVG 1.1//EN"
 "http://www.w3.org/Graphics/SVG/1.1/DTD/svg11.dtd">
<!-- Generated by graphviz version 2.38.0 (20140413.2041)
 -->
<!-- Title: models_diagram Pages: 1 -->
<svg width="604pt" height="230pt"
 viewBox="0.00 0.00 604.40 230.00" xmlns="http://www.w3.org/2000/svg" xmlns:xlink="http://www.w3.org/1999/xlink">
<g id="graph0" class="graph" transform="scale(1 1) rotate(0) translate(4 226)">
<title>models_diagram</title>
<polygon fill="none" stroke="none" points="-4,4 -4,-226 600.396,-226 600.396,4 -4,4"/>
<!-- _diagram_info -->
<g id="node1" class="node"><title>_diagram_info</title>
<text text-anchor="start" x="8" y="-207.6" font-family="Times,serif" font-size="13.00">Models diagram</text>
<text text-anchor="start" x="8" y="-193.6" font-family="Times,serif" font-size="13.00">Date: May 29 2017 &#45; 20:28</text>
<text text-anchor="start" x="8" y="-179.6" font-family="Times,serif" font-size="13.00">Migration version: 20170529135722</text>
<text text-anchor="start" x="8" y="-165.6" font-family="Times,serif" font-size="13.00">Generated by RailRoady 1.5.2</text>
<text text-anchor="start" x="8" y="-151.6" font-family="Times,serif" font-size="13.00">http://railroady.prestonlee.com</text>
</g>
<!-- ApplicationRecord -->
<g id="node2" class="node"><title>ApplicationRecord</title>
<ellipse fill="none" stroke="black" cx="309" cy="-183" rx="77.1866" ry="18"/>
<text text-anchor="middle" x="309" y="-179.3" font-family="Times,serif" font-size="14.00">ApplicationRecord</text>
</g>
<!-- Card -->
<g id="node3" class="node"><title>Card</title>
<ellipse fill="none" stroke="black" cx="288" cy="-90" rx="27.8951" ry="18"/>
<text text-anchor="middle" x="288" y="-86.3" font-family="Times,serif" font-size="14.00">Card</text>
</g>
<!-- Article -->
<g id="node4" class="node"><title>Article</title>
<ellipse fill="none" stroke="black" cx="369" cy="-90" rx="35.194" ry="18"/>
<text text-anchor="middle" x="369" y="-86.3" font-family="Times,serif" font-size="14.00">Article</text>
</g>
<!-- Comment -->
<g id="node5" class="node"><title>Comment</title>
<ellipse fill="none" stroke="black" cx="387" cy="-18" rx="46.2923" ry="18"/>
<text text-anchor="middle" x="387" y="-14.3" font-family="Times,serif" font-size="14.00">Comment</text>
</g>
<!-- Article&#45;&gt;Comment -->
<g id="edge1" class="edge"><title>Article&#45;&gt;Comment</title>
<path fill="none" stroke="#52a7f4" d="M375.36,-64.2675C376.847,-58.4845 378.439,-52.2913 379.954,-46.3999"/>
<ellipse fill="none" stroke="#52a7f4" cx="374.353" cy="-68.181" rx="4.00001" ry="4.00001"/>
<polygon fill="#52a7f4" stroke="#52a7f4" points="380.067,-45.9602 386.916,-37.396 381.313,-41.1178 382.558,-36.2753 382.558,-36.2753 382.558,-36.2753 381.313,-41.1178 378.2,-35.1546 380.067,-45.9602 380.067,-45.9602"/>
</g>
<!-- Message -->
<g id="node6" class="node"><title>Message</title>
<ellipse fill="none" stroke="black" cx="529" cy="-18" rx="42.4939" ry="18"/>
<text text-anchor="middle" x="529" y="-14.3" font-family="Times,serif" font-size="14.00">Message</text>
</g>
<!-- ChatRoom -->
<g id="node7" class="node"><title>ChatRoom</title>
<ellipse fill="none" stroke="black" cx="547" cy="-90" rx="49.2915" ry="18"/>
<text text-anchor="middle" x="547" y="-86.3" font-family="Times,serif" font-size="14.00">ChatRoom</text>
</g>
<!-- ChatRoom&#45;&gt;Message -->
<g id="edge2" class="edge"><title>ChatRoom&#45;&gt;Message</title>
<path fill="none" stroke="#4bae9d" d="M540.64,-64.2675C539.153,-58.4845 537.561,-52.2913 536.046,-46.3999"/>
<ellipse fill="none" stroke="#4bae9d" cx="541.647" cy="-68.181" rx="4.00001" ry="4.00001"/>
<polygon fill="#4bae9d" stroke="#4bae9d" points="535.933,-45.9602 537.8,-35.1546 534.687,-41.1178 533.442,-36.2753 533.442,-36.2753 533.442,-36.2753 534.687,-41.1178 529.084,-37.396 535.933,-45.9602 535.933,-45.9602"/>
</g>
<!-- User -->
<g id="node8" class="node"><title>User</title>
<ellipse fill="none" stroke="black" cx="432" cy="-183" rx="27.0966" ry="18"/>
<text text-anchor="middle" x="432" y="-179.3" font-family="Times,serif" font-size="14.00">User</text>
</g>
<!-- User&#45;&gt;Card -->
<g id="edge7" class="edge"><title>User&#45;&gt;Card</title>
<path fill="none" stroke="#f3f9ad" d="M413.598,-160.57C407.988,-154.767 401.56,-148.776 395,-144 388.192,-139.044 346.923,-119.029 317.68,-105.067"/>
<ellipse fill="none" stroke="#f3f9ad" cx="416.605" cy="-163.8" rx="4.00002" ry="4.00002"/>
<ellipse fill="#f3f9ad" stroke="#f3f9ad" cx="313.772" cy="-103.205" rx="4.00002" ry="4.00002"/>
</g>
<!-- User&#45;&gt;Article -->
<g id="edge5" class="edge"><title>User&#45;&gt;Article</title>
<path fill="none" stroke="#edfeca" d="M416.469,-159.566C407.267,-146.275 395.595,-129.415 386.127,-115.739"/>
<ellipse fill="none" stroke="#edfeca" cx="418.749" cy="-162.86" rx="4.00002" ry="4.00002"/>
<polygon fill="#edfeca" stroke="#edfeca" points="385.964,-115.504 383.972,-104.721 383.118,-111.393 380.272,-107.282 380.272,-107.282 380.272,-107.282 383.118,-111.393 376.572,-109.844 385.964,-115.504 385.964,-115.504"/>
</g>
<!-- User&#45;&gt;Comment -->
<g id="edge6" class="edge"><title>User&#45;&gt;Comment</title>
<path fill="none" stroke="#270014" d="M429.709,-156.784C427.172,-134.166 422.17,-100.28 413,-72 410.014,-62.7915 405.692,-53.1633 401.427,-44.6785"/>
<ellipse fill="none" stroke="#270014" cx="430.144" cy="-160.889" rx="4" ry="4"/>
<polygon fill="#270014" stroke="#270014" points="401.347,-44.5272 400.695,-33.5808 399.028,-40.0977 396.709,-35.6682 396.709,-35.6682 396.709,-35.6682 399.028,-40.0977 392.722,-37.7556 401.347,-44.5272 401.347,-44.5272"/>
</g>
<!-- User&#45;&gt;Message -->
<g id="edge4" class="edge"><title>User&#45;&gt;Message</title>
<path fill="none" stroke="#e5f4bb" d="M442.997,-157.991C453.738,-135.266 471.049,-100.486 489,-72 495.148,-62.244 502.598,-52.0201 509.395,-43.1835"/>
<ellipse fill="none" stroke="#e5f4bb" cx="441.178" cy="-161.874" rx="4.00002" ry="4.00002"/>
<polygon fill="#e5f4bb" stroke="#e5f4bb" points="509.483,-43.0711 519.191,-37.9708 512.565,-39.134 515.647,-35.1969 515.647,-35.1969 515.647,-35.1969 512.565,-39.134 512.104,-32.423 509.483,-43.0711 509.483,-43.0711"/>
</g>
<!-- User&#45;&gt;ChatRoom -->
<g id="edge3" class="edge"><title>User&#45;&gt;ChatRoom</title>
<path fill="none" stroke="#42524a" d="M455.471,-163.427C473.973,-148.787 499.817,-128.336 519.326,-112.899"/>
<ellipse fill="none" stroke="#42524a" cx="452.105" cy="-166.091" rx="4.00002" ry="4.00002"/>
<polygon fill="#42524a" stroke="#42524a" points="519.418,-112.826 530.052,-110.15 523.338,-109.723 527.259,-106.621 527.259,-106.621 527.259,-106.621 523.338,-109.723 524.467,-103.092 519.418,-112.826 519.418,-112.826"/>
</g>
</g>
</svg>
